<svg width="696" height="827" viewBox="0 0 696 827" fill="none" xmlns="http://www.w3.org/2000/svg">
<path d="M695.271 6.66153C649.485 -10.1638 537.74 -1.35315 457.052 168.492C356.192 380.8 312.942 399.642 268.907 425.773C224.873 451.905 110.765 471.027 57.9328 605.311C15.6668 712.739 73.2121 757.373 142.819 767.695" stroke="#F8B535" stroke-width="1.43116" stroke-linecap="round" stroke-dasharray="4.29 4.29"/>
<g clip-path="url(#clip0_518_10949)">
<path d="M169.685 781.53C170.583 781.667 171.521 780.944 171.778 779.902C171.909 779.373 171.848 778.85 171.606 778.428C171.502 778.246 171.27 778.183 171.088 778.288C170.907 778.392 170.844 778.624 170.948 778.806C171.09 779.053 171.124 779.387 171.042 779.72C170.881 780.37 170.313 780.858 169.8 780.779L167.113 780.366C166.94 780.34 166.775 780.435 166.708 780.589C166.695 780.618 166.686 780.649 166.681 780.683C166.65 780.891 166.791 781.083 166.998 781.116L169.685 781.53ZM166.634 789.781C167.108 789.674 167.534 789.363 167.834 788.908C168.422 788.016 168.322 786.833 167.611 786.267L165.485 784.572C165.321 784.442 165.083 784.469 164.952 784.632C164.931 784.659 164.914 784.687 164.901 784.716C164.834 784.87 164.875 785.056 165.012 785.165L167.138 786.86C167.544 787.183 167.571 787.931 167.201 788.491C167.012 788.778 166.744 788.978 166.466 789.042C166.262 789.088 166.134 789.291 166.18 789.496C166.226 789.7 166.429 789.828 166.634 789.781Z" fill="#232323"/>
<path d="M148.507 778.416C148.507 778.416 148.237 775.893 146.662 774.474C146.515 774.341 146.617 774.11 146.813 774.128C148.925 774.324 150.962 772.811 150.962 772.811L148.507 778.416Z" fill="#3A3A3A"/>
<path d="M157.111 772.073C160.837 773.705 162.257 781.1 162.257 781.1C162.257 781.1 155.859 785.071 152.132 783.439C148.406 781.806 147.387 778.327 148.761 775.189C150.136 772.051 153.384 770.44 157.111 772.073Z" fill="#FFD731"/>
<path d="M152.978 783.697C152.985 782.814 153.08 781.93 153.251 781.05C155.867 782.148 159.765 780.543 161.856 779.482C162.137 780.443 162.258 781.1 162.258 781.1C162.258 781.1 156.747 784.52 152.978 783.697ZM150.792 779.37C150.556 780.377 150.424 781.39 150.403 782.394C148.121 780.576 147.638 777.764 148.766 775.19C148.948 774.773 149.165 774.391 149.41 774.031C148.968 775.951 149.403 777.894 150.792 779.37Z" fill="#D9B705"/>
<path d="M152.134 783.434C151.468 783.142 150.896 782.79 150.399 782.392C150.444 780.434 150.896 778.434 151.745 776.495C152.594 774.557 153.758 772.868 155.166 771.508C155.796 771.602 156.443 771.784 157.109 772.076C157.378 772.194 157.633 772.346 157.876 772.523C156.406 773.897 155.203 775.629 154.328 777.627C153.453 779.624 152.995 781.683 152.983 783.695C152.687 783.637 152.404 783.552 152.134 783.434Z" fill="#3A3A3A"/>
<path d="M152.138 783.437C151.901 783.333 151.684 783.228 151.474 783.107C151.277 783.001 151.083 782.887 150.902 782.768C150.731 782.645 150.561 782.522 150.403 782.394C150.424 781.39 150.556 780.377 150.793 779.37C151.401 780.026 152.205 780.593 153.194 781.026L153.251 781.051C153.08 781.93 152.985 782.814 152.978 783.698C152.833 783.673 152.695 783.632 152.549 783.588C152.411 783.547 152.277 783.497 152.138 783.437Z" fill="#2D2D2D"/>
<path d="M160.067 780.139C158.945 782.7 159.705 785.508 161.765 786.41C163.824 787.312 166.403 785.967 167.525 783.406C168.646 780.845 167.886 778.038 165.827 777.136C163.767 776.234 161.188 777.579 160.067 780.139Z" fill="#FFD731"/>
<path d="M161.764 786.407C159.705 785.505 158.947 782.699 160.067 780.141C160.16 779.928 160.258 779.727 160.372 779.534C160.216 781.579 161.098 783.436 162.748 784.159C164.407 784.886 166.374 784.266 167.775 782.757C167.71 782.972 167.621 783.196 167.528 783.409C166.408 785.967 163.824 787.309 161.764 786.407Z" fill="#D9B705"/>
<path d="M159.358 769.465C158.793 769.232 158.144 769.493 157.884 770.047C156.517 772.956 155.981 776.635 158.259 779.05C159.311 780.15 160.684 780.31 161.833 779.782C162.982 779.254 163.908 778.037 164.063 776.382C164.377 772.824 161.973 770.544 159.358 769.465Z" fill="#DAF1F2"/>
<path d="M160.014 785.625C161.125 784.389 161.391 782.883 161 781.681C160.61 780.478 159.56 779.577 158.039 779.551C154.719 779.515 152.379 782.402 151.168 785.379C150.937 785.946 151.186 786.6 151.74 786.857C154.306 788.047 157.611 788.269 160.014 785.625Z" fill="#DAF1F2"/>
<path d="M162.532 777.313C162.673 776.992 162.761 776.642 162.796 776.271C162.839 775.777 162.818 775.295 162.732 774.838C162.692 774.633 162.494 774.497 162.288 774.537C162.16 774.56 162.06 774.647 162.011 774.757C161.981 774.825 161.971 774.902 161.986 774.98C162.059 775.368 162.078 775.78 162.04 776.203C162.013 776.492 161.945 776.763 161.837 777.01C161.753 777.201 161.84 777.425 162.032 777.509C162.224 777.593 162.448 777.505 162.532 777.313ZM162.097 773.21C162.06 773.15 162.021 773.09 161.981 773.032C161.863 772.858 161.627 772.813 161.454 772.931C161.393 772.972 161.348 773.028 161.319 773.092C161.269 773.208 161.277 773.345 161.353 773.457L161.451 773.608C161.561 773.786 161.794 773.842 161.972 773.732C162.151 773.621 162.207 773.389 162.097 773.21Z" fill="#F9FEFC"/>
</g>
<defs>
<clipPath id="clip0_518_10949">
<rect width="22.8424" height="29.443" fill="white" transform="translate(177.698 775.373) rotate(113.653)"/>
</clipPath>
</defs>
</svg>
