<svg width="1728" height="763" viewBox="0 0 1728 763" fill="none" xmlns="http://www.w3.org/2000/svg">
<rect width="1728" height="763" fill="white"/>
<path d="M16 656C31 559 144.9 372.7 480.5 403.5C900 442 968 385.5 1048 335C1128 284.5 1260 104.5 1515.5 148C1719.9 182.8 1737.45 328.464 1691 460.5C1648.72 580.701 1549.1 640.2 1401.5 611" stroke="#F8B535" stroke-width="4" stroke-linecap="round" stroke-dasharray="12 12"/>
<g clip-path="url(#clip0_45_1284)">
<path d="M1348.83 587.913C1347.21 587.524 1345.39 588.703 1344.76 590.566C1344.44 591.513 1344.47 592.478 1344.85 593.286C1345.01 593.633 1345.43 593.784 1345.77 593.62C1346.12 593.458 1346.27 593.044 1346.11 592.695C1345.89 592.222 1345.88 591.607 1346.08 591.011C1346.47 589.847 1347.58 589.044 1348.51 589.265L1353.36 590.432C1353.67 590.506 1353.98 590.357 1354.13 590.087C1354.16 590.035 1354.18 589.979 1354.19 589.918C1354.28 589.544 1354.05 589.171 1353.68 589.079L1348.83 587.913ZM1355.67 573.304C1354.79 573.427 1353.96 573.93 1353.34 574.715C1352.13 576.255 1352.14 578.432 1353.35 579.575L1356.97 582.997C1357.25 583.26 1357.69 583.246 1357.96 582.967C1358 582.922 1358.03 582.874 1358.06 582.822C1358.21 582.552 1358.16 582.206 1357.93 581.985L1354.3 578.564C1353.61 577.912 1353.67 576.541 1354.44 575.575C1354.83 575.079 1355.35 574.754 1355.86 574.681C1356.24 574.626 1356.51 574.275 1356.45 573.894C1356.4 573.514 1356.05 573.249 1355.67 573.304Z" fill="#232323"/>
<path d="M1387.05 596.839C1387.05 596.839 1387.16 601.489 1389.82 604.324C1390.07 604.588 1389.85 604.995 1389.49 604.932C1385.66 604.251 1381.71 606.704 1381.71 606.704L1387.05 596.839Z" fill="#3A3A3A"/>
<path d="M1370.36 607.114C1363.8 603.562 1362.34 589.834 1362.34 589.834C1362.34 589.834 1374.63 583.558 1381.19 587.109C1387.75 590.661 1389.08 597.174 1386.09 602.697C1383.1 608.22 1376.92 610.665 1370.36 607.114Z" fill="#FFD731"/>
<path d="M1379.69 586.508C1379.54 588.12 1379.23 589.721 1378.79 591.301C1374.17 588.897 1366.81 591.232 1362.82 592.851C1362.46 591.053 1362.34 589.835 1362.34 589.835C1362.34 589.835 1372.93 584.428 1379.69 586.508ZM1383.02 594.748C1383.61 592.945 1384 591.113 1384.19 589.283C1388.09 592.952 1388.54 598.163 1386.08 602.694C1385.69 603.427 1385.23 604.093 1384.73 604.714C1385.83 601.273 1385.33 597.656 1383.02 594.748Z" fill="#D9B705"/>
<path d="M1381.19 587.117C1382.36 587.752 1383.35 588.483 1384.2 589.287C1383.82 592.856 1382.69 596.442 1380.84 599.854C1378.99 603.266 1376.61 606.172 1373.83 608.443C1372.69 608.173 1371.54 607.742 1370.36 607.107C1369.89 606.85 1369.45 606.535 1369.03 606.173C1371.93 603.889 1374.39 600.907 1376.29 597.392C1378.2 593.877 1379.35 590.185 1379.68 586.511C1380.21 586.663 1380.71 586.86 1381.19 587.117Z" fill="#3A3A3A"/>
<path d="M1381.18 587.113C1381.6 587.339 1381.98 587.564 1382.35 587.817C1382.69 588.04 1383.03 588.278 1383.34 588.523C1383.63 588.774 1383.93 589.025 1384.19 589.283C1384 591.113 1383.61 592.945 1383.02 594.748C1382.01 593.456 1380.63 592.298 1378.89 591.356L1378.79 591.302C1379.23 589.721 1379.54 588.121 1379.69 586.508C1379.95 586.575 1380.2 586.671 1380.46 586.774C1380.7 586.87 1380.94 586.981 1381.18 587.113Z" fill="#2D2D2D"/>
<path d="M1366.19 591.923C1368.63 587.415 1367.67 582.17 1364.05 580.207C1360.42 578.245 1355.51 580.307 1353.07 584.815C1350.63 589.322 1351.59 594.567 1355.21 596.53C1358.84 598.492 1363.75 596.43 1366.19 591.923Z" fill="#FFD731"/>
<path d="M1364.05 580.215C1367.67 582.178 1368.63 587.42 1366.19 591.922C1365.99 592.296 1365.78 592.648 1365.54 592.984C1366.14 589.271 1364.81 585.744 1361.91 584.17C1358.99 582.589 1355.3 583.42 1352.51 585.964C1352.66 585.581 1352.86 585.185 1353.06 584.811C1355.5 580.309 1360.42 578.252 1364.05 580.215Z" fill="#D9B705"/>
<path d="M1365.86 611.532C1366.85 612.044 1368.08 611.666 1368.64 610.695C1371.58 605.588 1373.12 598.95 1369.33 594.19C1367.58 592.019 1365.09 591.516 1362.91 592.306C1360.73 593.095 1358.85 595.177 1358.32 598.175C1357.2 604.629 1361.24 609.161 1365.86 611.532Z" fill="#DAF1F2"/>
<path d="M1367.13 581.911C1364.91 583.998 1364.19 586.709 1364.72 588.966C1365.25 591.223 1367.03 593.029 1369.81 593.31C1375.87 593.883 1380.58 588.967 1383.25 583.712C1383.76 582.713 1383.4 581.479 1382.43 580.924C1377.93 578.358 1371.92 577.448 1367.13 581.911Z" fill="#DAF1F2"/>
<path d="M1361.26 596.71C1360.95 597.276 1360.74 597.901 1360.62 598.575C1360.46 599.469 1360.43 600.354 1360.51 601.202C1360.55 601.583 1360.9 601.861 1361.28 601.82C1361.52 601.797 1361.71 601.654 1361.82 601.46C1361.88 601.34 1361.91 601.201 1361.9 601.057C1361.82 600.337 1361.85 599.581 1361.99 598.814C1362.08 598.29 1362.25 597.805 1362.48 597.371C1362.66 597.034 1362.54 596.612 1362.2 596.429C1361.86 596.246 1361.44 596.372 1361.26 596.71ZM1361.42 604.273C1361.48 604.389 1361.54 604.503 1361.61 604.617C1361.8 604.952 1362.22 605.069 1362.56 604.882C1362.67 604.816 1362.77 604.72 1362.83 604.607C1362.94 604.404 1362.94 604.151 1362.82 603.935L1362.67 603.645C1362.49 603.302 1362.07 603.165 1361.73 603.339C1361.39 603.513 1361.25 603.93 1361.42 604.273Z" fill="#F9FEFC"/>
</g>
<defs>
<clipPath id="clip0_45_1284">
<rect width="52.3418" height="52.3418" fill="white" transform="translate(1334.27 604.396) rotate(-61.5636)"/>
</clipPath>
</defs>
</svg>
