<svg width="827" height="697" viewBox="0 0 827 697" fill="none" xmlns="http://www.w3.org/2000/svg">
<path d="M824.478 9.66082C769.612 -8.66946 646.905 -7.56799 595.006 143.48C530.132 332.291 486.104 346.901 442.837 368.16C399.57 389.42 276.542 399.851 247.739 519.959C224.698 616.046 298.928 660.671 378.913 674.516" stroke="#F8B535" stroke-opacity="0.4" stroke-width="3.1858" stroke-linecap="round" stroke-dasharray="9.56 9.56"/>
<path d="M426.319 679.032C427.607 679.352 428.463 680.854 428.224 682.402C428.102 683.189 427.726 683.86 427.162 684.292C426.921 684.478 426.572 684.432 426.387 684.189C426.201 683.948 426.246 683.599 426.489 683.412C426.82 683.159 427.053 682.729 427.129 682.234C427.279 681.267 426.786 680.29 426.052 680.108L422.198 679.154C421.95 679.091 421.782 678.87 421.778 678.625C421.777 678.578 421.782 678.531 421.795 678.483C421.869 678.186 422.168 678.006 422.465 678.078L426.319 679.032ZM426.848 666.197C427.426 666.607 427.826 667.266 427.975 668.048C428.265 669.58 427.464 671.119 426.188 671.483L422.37 672.571C422.076 672.654 421.771 672.483 421.686 672.189C421.672 672.141 421.665 672.094 421.664 672.047C421.66 671.803 421.82 671.576 422.066 671.505L425.884 670.417C426.613 670.21 427.07 669.217 426.886 668.255C426.793 667.761 426.545 667.341 426.206 667.099C425.956 666.921 425.898 666.576 426.076 666.326C426.253 666.077 426.599 666.019 426.848 666.197Z" fill="#232323"/>
<path d="M396.03 671.315C396.03 671.315 394.248 674.563 391.326 675.59C391.054 675.686 391.061 676.055 391.336 676.141C394.292 677.064 396.186 680.249 396.186 680.249L396.03 671.315Z" fill="#3A3A3A"/>
<path d="M404.057 684.705C409.997 684.601 416.068 675.435 416.068 675.435C416.068 675.435 409.68 666.486 403.741 666.589C397.801 666.693 394.471 670.808 394.558 675.81C394.646 680.812 398.117 684.809 404.057 684.705Z" fill="#FFD731"/>
<path d="M405.025 666.714C404.538 667.908 404.169 669.152 403.904 670.433C408.048 670.426 412.397 674.78 414.619 677.387C415.537 676.25 416.07 675.433 416.07 675.433C416.07 675.433 410.567 667.724 405.025 666.714ZM399.646 671.316C399.894 669.826 400.286 668.386 400.822 667.021C396.725 668.187 394.493 671.705 394.565 675.808C394.576 676.473 394.653 677.11 394.781 677.733C395.266 674.897 396.944 672.522 399.646 671.316Z" fill="#D9B705"/>
<path d="M403.74 666.596C402.678 666.614 401.709 666.767 400.815 667.025C399.775 669.688 399.259 672.638 399.313 675.727C399.367 678.817 399.986 681.747 401.118 684.372C402.02 684.599 402.994 684.717 404.056 684.699C404.485 684.691 404.913 684.63 405.341 684.528C404.132 681.85 403.485 678.839 403.43 675.655C403.374 672.472 403.916 669.44 405.03 666.722C404.599 666.634 404.169 666.588 403.74 666.596Z" fill="#3A3A3A"/>
<path d="M403.745 666.594C403.367 666.6 403.016 666.62 402.665 666.665C402.339 666.696 402.015 666.741 401.703 666.799C401.404 666.869 401.106 666.94 400.821 667.023C400.284 668.387 399.893 669.827 399.645 671.317C400.834 670.775 402.236 670.464 403.812 670.436L403.903 670.435C404.167 669.153 404.537 667.909 405.024 666.715C404.815 666.666 404.606 666.644 404.384 666.622C404.175 666.599 403.966 666.59 403.745 666.594Z" fill="#2D2D2D"/>
<path d="M412.577 675.495C412.506 671.413 415.109 668.058 418.391 668.001C421.674 667.943 424.393 671.206 424.464 675.288C424.535 679.369 421.932 682.725 418.649 682.782C415.367 682.839 412.648 679.577 412.577 675.495Z" fill="#FFD731"/>
<path d="M418.389 668.005C415.107 668.062 412.507 671.417 412.578 675.494C412.584 675.832 412.603 676.158 412.648 676.483C413.588 673.639 415.82 671.633 418.452 671.587C421.096 671.541 423.397 673.481 424.436 676.303C424.47 675.977 424.476 675.625 424.471 675.286C424.399 671.209 421.671 667.947 418.389 668.005Z" fill="#D9B705"/>
<path d="M405.619 689.48C404.726 689.476 403.998 688.76 403.959 687.868C403.754 683.178 405.1 677.921 409.529 675.948C411.564 675.056 413.504 675.612 414.756 676.97C416.007 678.328 416.571 680.489 415.849 682.805C414.271 687.778 409.749 689.497 405.619 689.48Z" fill="#DAF1F2"/>
<path d="M415.591 668.075C416.393 670.365 415.904 672.544 414.702 673.945C413.499 675.346 411.577 675.969 409.513 675.149C405.019 673.331 403.49 668.125 403.532 663.431C403.54 662.538 404.243 661.796 405.134 661.761C409.261 661.601 413.84 663.161 415.591 668.075Z" fill="#DAF1F2"/>
<path d="M414.309 680.69C414.318 681.202 414.242 681.723 414.079 682.243C413.86 682.933 413.56 683.571 413.187 684.138C413.018 684.392 412.675 684.463 412.419 684.294C412.26 684.19 412.173 684.017 412.17 683.841C412.168 683.733 412.198 683.623 412.261 683.527C412.579 683.046 412.835 682.501 413.023 681.91C413.148 681.505 413.209 681.102 413.202 680.708C413.197 680.403 413.44 680.15 413.746 680.145C414.052 680.14 414.304 680.384 414.309 680.69ZM411.417 685.975C411.332 686.035 411.247 686.093 411.159 686.15C410.903 686.317 410.56 686.245 410.393 685.99C410.334 685.9 410.304 685.799 410.302 685.696C410.299 685.512 410.387 685.331 410.553 685.223L410.769 685.075C411.017 684.896 411.364 684.953 411.541 685.201C411.72 685.451 411.665 685.796 411.417 685.975Z" fill="#F9FEFC"/>
<path d="M426.318 679.032C427.606 679.352 428.462 680.854 428.223 682.402C428.101 683.189 427.725 683.86 427.161 684.292C426.92 684.478 426.571 684.432 426.386 684.189C426.2 683.947 426.245 683.599 426.488 683.412C426.819 683.159 427.052 682.729 427.128 682.234C427.278 681.267 426.785 680.29 426.051 680.108L422.197 679.153C421.949 679.091 421.781 678.87 421.777 678.625C421.776 678.578 421.781 678.531 421.794 678.483C421.868 678.186 422.167 678.006 422.464 678.078L426.318 679.032ZM426.847 666.197C427.425 666.607 427.825 667.266 427.974 668.048C428.264 669.58 427.463 671.119 426.187 671.482L422.369 672.571C422.075 672.654 421.77 672.483 421.685 672.189C421.671 672.141 421.664 672.094 421.663 672.047C421.659 671.803 421.819 671.576 422.065 671.505L425.883 670.417C426.612 670.21 427.069 669.217 426.885 668.255C426.792 667.761 426.544 667.341 426.205 667.099C425.955 666.921 425.897 666.575 426.075 666.326C426.252 666.077 426.598 666.019 426.847 666.197Z" fill="#232323"/>
<path d="M396.029 671.315C396.029 671.315 394.247 674.563 391.325 675.59C391.053 675.686 391.06 676.055 391.335 676.141C394.291 677.064 396.185 680.249 396.185 680.249L396.029 671.315Z" fill="#3A3A3A"/>
<path d="M404.056 684.705C409.996 684.601 416.067 675.435 416.067 675.435C416.067 675.435 409.679 666.486 403.74 666.589C397.8 666.693 394.47 670.808 394.557 675.81C394.645 680.812 398.116 684.809 404.056 684.705Z" fill="#FFD731"/>
<path d="M405.024 666.714C404.537 667.908 404.168 669.152 403.903 670.433C408.047 670.426 412.396 674.78 414.618 677.387C415.536 676.25 416.069 675.433 416.069 675.433C416.069 675.433 410.566 667.724 405.024 666.714ZM399.645 671.316C399.893 669.826 400.285 668.386 400.821 667.021C396.724 668.187 394.492 671.705 394.564 675.808C394.576 676.473 394.652 677.11 394.78 677.733C395.265 674.897 396.943 672.522 399.645 671.316Z" fill="#D9B705"/>
<path d="M403.739 666.596C402.677 666.614 401.708 666.767 400.814 667.025C399.774 669.688 399.258 672.638 399.312 675.727C399.366 678.817 399.985 681.747 401.117 684.372C402.019 684.599 402.993 684.717 404.055 684.699C404.484 684.691 404.912 684.63 405.34 684.528C404.131 681.85 403.485 678.839 403.429 675.655C403.373 672.472 403.915 669.44 405.029 666.722C404.598 666.634 404.168 666.588 403.739 666.596Z" fill="#3A3A3A"/>
<path d="M403.744 666.594C403.366 666.6 403.015 666.619 402.664 666.665C402.339 666.696 402.014 666.741 401.702 666.799C401.403 666.869 401.105 666.939 400.82 667.023C400.283 668.387 399.892 669.827 399.644 671.317C400.833 670.775 402.235 670.464 403.811 670.436L403.902 670.435C404.166 669.153 404.536 667.909 405.023 666.715C404.814 666.666 404.605 666.644 404.383 666.622C404.174 666.599 403.965 666.59 403.744 666.594Z" fill="#2D2D2D"/>
<path d="M412.576 675.495C412.505 671.413 415.108 668.058 418.39 668.001C421.673 667.943 424.392 671.206 424.463 675.288C424.534 679.369 421.931 682.725 418.648 682.782C415.366 682.839 412.647 679.577 412.576 675.495Z" fill="#FFD731"/>
<path d="M418.388 668.005C415.106 668.062 412.506 671.417 412.577 675.494C412.583 675.832 412.602 676.158 412.647 676.483C413.587 673.639 415.819 671.633 418.451 671.587C421.095 671.54 423.396 673.481 424.435 676.303C424.469 675.977 424.475 675.625 424.47 675.286C424.398 671.209 421.67 667.947 418.388 668.005Z" fill="#D9B705"/>
<path d="M405.618 689.48C404.725 689.476 403.997 688.759 403.958 687.868C403.753 683.178 405.099 677.921 409.528 675.948C411.563 675.056 413.504 675.612 414.755 676.97C416.006 678.328 416.57 680.489 415.848 682.805C414.27 687.778 409.748 689.497 405.618 689.48Z" fill="#DAF1F2"/>
<path d="M415.59 668.075C416.392 670.365 415.904 672.544 414.701 673.945C413.498 675.346 411.576 675.969 409.512 675.149C405.018 673.331 403.489 668.125 403.531 663.431C403.539 662.538 404.242 661.796 405.133 661.761C409.26 661.601 413.839 663.161 415.59 668.075Z" fill="#DAF1F2"/>
<path d="M414.309 680.69C414.317 681.202 414.241 681.723 414.078 682.243C413.859 682.932 413.559 683.571 413.186 684.138C413.017 684.392 412.674 684.463 412.418 684.294C412.259 684.19 412.172 684.017 412.169 683.841C412.167 683.733 412.197 683.623 412.26 683.527C412.578 683.046 412.834 682.501 413.022 681.91C413.147 681.505 413.208 681.101 413.201 680.708C413.196 680.403 413.439 680.15 413.745 680.145C414.051 680.139 414.303 680.384 414.309 680.69ZM411.416 685.974C411.331 686.035 411.246 686.093 411.158 686.15C410.902 686.317 410.559 686.245 410.392 685.99C410.333 685.9 410.303 685.798 410.301 685.696C410.298 685.512 410.386 685.331 410.552 685.223L410.768 685.075C411.016 684.896 411.363 684.953 411.54 685.201C411.719 685.451 411.664 685.796 411.416 685.974Z" fill="#F9FEFC"/>
<path d="M824.478 9.66082C769.612 -8.66946 646.905 -7.56799 595.006 143.48C530.132 332.291 486.104 346.901 442.837 368.16C399.57 389.42 276.542 399.851 247.739 519.959C224.698 616.046 298.928 660.671 378.913 674.516" stroke="#F8B535" stroke-opacity="0.4" stroke-width="3.1858" stroke-linecap="round" stroke-dasharray="9.56 9.56"/>
</svg>
