<svg width="1715" height="748" viewBox="0 0 1715 748" fill="none" xmlns="http://www.w3.org/2000/svg">
<path d="M2.00024 746C17.1285 649 132.002 462.7 470.471 493.5C893.557 532 962.138 475.5 1042.82 425C1123.51 374.5 1256.63 194.5 1514.32 238C1720.47 272.8 1738.16 418.464 1691.32 550.5C1648.67 670.701 1548.21 730.2 1399.34 701" stroke="#F8B535" stroke-opacity="0.4" stroke-width="4" stroke-linecap="round" stroke-dasharray="12 12"/>
<g clip-path="url(#clip0_895_834)">
<path d="M1346.23 677.913C1344.59 677.524 1342.75 678.703 1342.12 680.566C1341.8 681.513 1341.83 682.478 1342.21 683.286C1342.37 683.633 1342.79 683.784 1343.14 683.62C1343.49 683.458 1343.64 683.044 1343.48 682.695C1343.26 682.222 1343.25 681.607 1343.45 681.011C1343.84 679.847 1344.97 679.044 1345.9 679.265L1350.79 680.432C1351.1 680.506 1351.42 680.357 1351.57 680.087C1351.6 680.035 1351.62 679.979 1351.63 679.918C1351.72 679.544 1351.49 679.171 1351.12 679.079L1346.23 677.913ZM1353.12 663.304C1352.23 663.427 1351.4 663.93 1350.78 664.715C1349.56 666.255 1349.56 668.432 1350.78 669.575L1354.44 672.997C1354.72 673.26 1355.16 673.246 1355.43 672.967C1355.47 672.922 1355.51 672.874 1355.53 672.822C1355.68 672.552 1355.63 672.206 1355.4 671.985L1351.74 668.564C1351.04 667.912 1351.11 666.541 1351.88 665.575C1352.27 665.079 1352.79 664.754 1353.32 664.681C1353.7 664.626 1353.97 664.275 1353.91 663.894C1353.86 663.514 1353.51 663.249 1353.12 663.304Z" fill="#232323"/>
<path d="M1384.77 686.839C1384.77 686.839 1384.88 691.489 1387.56 694.324C1387.81 694.588 1387.59 694.995 1387.23 694.932C1383.37 694.251 1379.38 696.704 1379.38 696.704L1384.77 686.839Z" fill="#3A3A3A"/>
<path d="M1367.94 697.114C1361.32 693.562 1359.85 679.834 1359.85 679.834C1359.85 679.834 1372.25 673.558 1378.86 677.109C1385.48 680.661 1386.82 687.174 1383.8 692.697C1380.79 698.22 1374.55 700.665 1367.94 697.114Z" fill="#FFD731"/>
<path d="M1377.35 676.508C1377.2 678.12 1376.89 679.721 1376.44 681.301C1371.78 678.897 1364.35 681.232 1360.34 682.851C1359.97 681.053 1359.85 679.835 1359.85 679.835C1359.85 679.835 1370.53 674.428 1377.35 676.508ZM1380.71 684.748C1381.3 682.945 1381.7 681.113 1381.89 679.283C1385.81 682.952 1386.27 688.163 1383.8 692.694C1383.4 693.427 1382.94 694.093 1382.43 694.714C1383.54 691.273 1383.04 687.656 1380.71 684.748Z" fill="#D9B705"/>
<path d="M1378.86 677.117C1380.04 677.752 1381.04 678.483 1381.9 679.287C1381.51 682.856 1380.37 686.442 1378.51 689.854C1376.64 693.266 1374.24 696.172 1371.43 698.443C1370.29 698.173 1369.12 697.742 1367.94 697.107C1367.46 696.85 1367.02 696.535 1366.6 696.173C1369.52 693.889 1372 690.907 1373.92 687.392C1375.84 683.877 1377 680.185 1377.34 676.511C1377.87 676.663 1378.38 676.86 1378.86 677.117Z" fill="#3A3A3A"/>
<path d="M1378.85 677.113C1379.28 677.339 1379.66 677.564 1380.03 677.817C1380.37 678.04 1380.71 678.278 1381.03 678.523C1381.32 678.774 1381.62 679.025 1381.89 679.283C1381.7 681.113 1381.3 682.945 1380.71 684.748C1379.69 683.456 1378.29 682.298 1376.54 681.356L1376.44 681.302C1376.89 679.721 1377.2 678.121 1377.35 676.508C1377.61 676.575 1377.86 676.671 1378.12 676.774C1378.37 676.87 1378.61 676.981 1378.85 677.113Z" fill="#2D2D2D"/>
<path d="M1363.74 681.923C1366.2 677.415 1365.23 672.17 1361.57 670.207C1357.92 668.245 1352.96 670.307 1350.5 674.815C1348.04 679.322 1349 684.567 1352.66 686.53C1356.31 688.492 1361.27 686.43 1363.74 681.923Z" fill="#FFD731"/>
<path d="M1361.57 670.215C1365.23 672.178 1366.19 677.42 1363.73 681.922C1363.53 682.296 1363.32 682.648 1363.08 682.984C1363.68 679.271 1362.34 675.744 1359.41 674.17C1356.47 672.589 1352.75 673.42 1349.94 675.964C1350.09 675.581 1350.29 675.185 1350.49 674.811C1352.95 670.309 1357.92 668.252 1361.57 670.215Z" fill="#D9B705"/>
<path d="M1363.4 701.532C1364.4 702.044 1365.64 701.666 1366.2 700.695C1369.17 695.588 1370.72 688.95 1366.9 684.19C1365.13 682.019 1362.63 681.516 1360.43 682.306C1358.23 683.095 1356.33 685.177 1355.79 688.175C1354.67 694.629 1358.74 699.161 1363.4 701.532Z" fill="#DAF1F2"/>
<path d="M1364.68 671.911C1362.44 673.998 1361.72 676.709 1362.25 678.966C1362.79 681.223 1364.58 683.029 1367.38 683.31C1373.49 683.883 1378.25 678.967 1380.94 673.712C1381.45 672.713 1381.09 671.479 1380.11 670.924C1375.57 668.358 1369.51 667.448 1364.68 671.911Z" fill="#DAF1F2"/>
<path d="M1358.76 686.71C1358.45 687.276 1358.23 687.901 1358.11 688.575C1357.95 689.469 1357.92 690.354 1358.01 691.202C1358.05 691.583 1358.39 691.861 1358.78 691.82C1359.02 691.797 1359.22 691.654 1359.32 691.46C1359.39 691.34 1359.42 691.201 1359.4 691.057C1359.33 690.337 1359.36 689.581 1359.49 688.814C1359.59 688.29 1359.75 687.805 1359.99 687.371C1360.17 687.034 1360.05 686.612 1359.71 686.429C1359.37 686.246 1358.94 686.372 1358.76 686.71ZM1358.92 694.273C1358.99 694.389 1359.05 694.503 1359.11 694.617C1359.3 694.952 1359.73 695.069 1360.07 694.882C1360.19 694.816 1360.28 694.72 1360.34 694.607C1360.45 694.404 1360.46 694.151 1360.33 693.935L1360.18 693.645C1360 693.302 1359.58 693.165 1359.24 693.339C1358.89 693.513 1358.75 693.93 1358.92 694.273Z" fill="#F9FEFC"/>
</g>
<defs>
<clipPath id="clip0_895_834">
<rect width="52.4436" height="52.6881" fill="white" transform="matrix(0.479322 -0.877639 0.881034 0.473054 1331.54 694.396)"/>
</clipPath>
</defs>
</svg>
