<svg width="1418" height="521" viewBox="0 0 1418 521" fill="none" xmlns="http://www.w3.org/2000/svg">
<path d="M34 465.334C45.9468 388.078 136.663 239.699 403.952 264.229C738.063 294.893 792.222 249.893 855.938 209.673C919.654 169.452 1024.79 26.0906 1228.28 60.7362C1391.07 88.4527 1405.05 204.467 1368.06 309.627C1334.38 405.361 1255.04 452.749 1137.48 429.493" stroke="#F8B535" stroke-opacity="0.4" stroke-width="3.1858" stroke-linecap="round" stroke-dasharray="9.56 9.56"/>
<g clip-path="url(#clip0_908_997)">
<path d="M1095.54 411.105C1094.25 410.796 1092.79 411.735 1092.29 413.219C1092.04 413.973 1092.06 414.742 1092.37 415.385C1092.49 415.662 1092.82 415.782 1093.1 415.651C1093.38 415.522 1093.5 415.192 1093.37 414.914C1093.19 414.537 1093.18 414.048 1093.34 413.574C1093.66 412.646 1094.54 412.007 1095.28 412.183L1099.14 413.112C1099.39 413.171 1099.64 413.052 1099.76 412.837C1099.78 412.796 1099.79 412.751 1099.81 412.703C1099.88 412.405 1099.69 412.107 1099.4 412.034L1095.54 411.105ZM1100.98 399.47C1100.28 399.568 1099.62 399.969 1099.13 400.594C1098.17 401.82 1098.17 403.555 1099.13 404.465L1102.02 407.19C1102.24 407.4 1102.59 407.389 1102.8 407.167C1102.84 407.131 1102.86 407.093 1102.89 407.051C1103 406.836 1102.97 406.561 1102.78 406.384L1099.89 403.659C1099.34 403.14 1099.39 402.048 1100 401.279C1100.31 400.884 1100.72 400.625 1101.14 400.567C1101.44 400.524 1101.65 400.244 1101.61 399.94C1101.56 399.638 1101.29 399.427 1100.98 399.47Z" fill="#232323"/>
<path d="M1125.97 418.214C1125.97 418.214 1126.06 421.918 1128.18 424.176C1128.38 424.386 1128.2 424.71 1127.92 424.66C1124.87 424.118 1121.72 426.072 1121.72 426.072L1125.97 418.214Z" fill="#3A3A3A"/>
<path d="M1112.68 426.398C1107.46 423.569 1106.29 412.636 1106.29 412.636C1106.29 412.636 1116.09 407.637 1121.31 410.465C1126.53 413.294 1127.59 418.481 1125.21 422.88C1122.83 427.279 1117.9 429.227 1112.68 426.398Z" fill="#FFD731"/>
<path d="M1120.11 409.987C1119.99 411.271 1119.75 412.545 1119.39 413.804C1115.72 411.889 1109.85 413.749 1106.68 415.039C1106.39 413.607 1106.29 412.636 1106.29 412.636C1106.29 412.636 1114.73 408.33 1120.11 409.987ZM1122.77 416.549C1123.23 415.113 1123.55 413.655 1123.7 412.196C1126.8 415.119 1127.16 419.269 1125.21 422.878C1124.89 423.462 1124.53 423.993 1124.13 424.487C1125 421.746 1124.61 418.866 1122.77 416.549Z" fill="#D9B705"/>
<path d="M1121.31 410.472C1122.24 410.977 1123.03 411.559 1123.7 412.2C1123.4 415.043 1122.5 417.899 1121.03 420.616C1119.56 423.333 1117.66 425.648 1115.44 427.456C1114.54 427.242 1113.62 426.898 1112.69 426.393C1112.31 426.188 1111.96 425.937 1111.62 425.649C1113.93 423.83 1115.89 421.455 1117.41 418.655C1118.92 415.855 1119.84 412.915 1120.1 409.989C1120.53 410.11 1120.93 410.267 1121.31 410.472Z" fill="#3A3A3A"/>
<path d="M1121.3 410.468C1121.64 410.648 1121.94 410.827 1122.23 411.029C1122.5 411.207 1122.77 411.397 1123.02 411.591C1123.25 411.791 1123.49 411.991 1123.7 412.196C1123.55 413.655 1123.23 415.113 1122.77 416.549C1121.96 415.52 1120.86 414.599 1119.47 413.848L1119.39 413.804C1119.75 412.545 1119.99 411.271 1120.11 409.987C1120.32 410.04 1120.52 410.116 1120.72 410.199C1120.92 410.275 1121.11 410.363 1121.3 410.468Z" fill="#2D2D2D"/>
<path d="M1109.36 414.299C1111.31 410.709 1110.54 406.532 1107.66 404.969C1104.77 403.405 1100.85 405.048 1098.91 408.638C1096.96 412.228 1097.73 416.405 1100.62 417.968C1103.5 419.532 1107.42 417.889 1109.36 414.299Z" fill="#FFD731"/>
<path d="M1107.66 404.974C1110.54 406.537 1111.3 410.712 1109.36 414.298C1109.2 414.596 1109.03 414.876 1108.84 415.144C1109.32 412.187 1108.26 409.377 1105.95 408.124C1103.62 406.865 1100.69 407.527 1098.47 409.553C1098.59 409.248 1098.74 408.932 1098.9 408.634C1100.84 405.049 1104.77 403.411 1107.66 404.974Z" fill="#D9B705"/>
<path d="M1109.1 429.917C1109.89 430.325 1110.87 430.024 1111.31 429.25C1113.65 425.183 1114.88 419.896 1111.86 416.105C1110.47 414.376 1108.49 413.975 1106.75 414.604C1105.01 415.233 1103.52 416.891 1103.09 419.279C1102.2 424.419 1105.42 428.028 1109.1 429.917Z" fill="#DAF1F2"/>
<path d="M1110.11 406.325C1108.34 407.988 1107.77 410.147 1108.19 411.944C1108.61 413.742 1110.03 415.181 1112.24 415.404C1117.07 415.861 1120.82 411.945 1122.95 407.76C1123.35 406.964 1123.07 405.981 1122.3 405.539C1118.71 403.495 1113.92 402.771 1110.11 406.325Z" fill="#DAF1F2"/>
<path d="M1105.43 418.112C1105.19 418.563 1105.02 419.061 1104.92 419.597C1104.8 420.31 1104.77 421.015 1104.84 421.69C1104.87 421.993 1105.14 422.214 1105.45 422.182C1105.64 422.163 1105.79 422.05 1105.88 421.895C1105.93 421.8 1105.95 421.689 1105.94 421.574C1105.88 421.001 1105.91 420.399 1106.01 419.788C1106.09 419.371 1106.22 418.985 1106.41 418.639C1106.55 418.37 1106.45 418.034 1106.18 417.888C1105.91 417.742 1105.58 417.843 1105.43 418.112ZM1105.56 424.135C1105.61 424.228 1105.66 424.319 1105.71 424.409C1105.86 424.676 1106.2 424.77 1106.47 424.621C1106.56 424.568 1106.63 424.492 1106.68 424.402C1106.77 424.24 1106.78 424.038 1106.68 423.867L1106.55 423.635C1106.42 423.362 1106.08 423.253 1105.81 423.391C1105.54 423.531 1105.43 423.862 1105.56 424.135Z" fill="#F9FEFC"/>
</g>
<defs>
<clipPath id="clip0_908_997">
<rect width="41.6877" height="41.6877" fill="white" transform="translate(1083.94 424.234) rotate(-61.5636)"/>
</clipPath>
</defs>
</svg>
