<svg width="912" height="1023" viewBox="0 0 912 1023" fill="none" xmlns="http://www.w3.org/2000/svg">
<path d="M909.844 13.7565C827.125 -13.8793 642.126 -12.2186 563.879 215.51C466.071 500.171 399.693 522.198 334.461 554.25C269.229 586.302 83.7447 602.028 40.321 783.111C5.58208 927.977 117.496 995.257 238.085 1016.13C347.865 1035.13 426.367 993.919 448.175 887.745" stroke="#F8B535" stroke-opacity="0.4" stroke-width="3.1858" stroke-linecap="round" stroke-dasharray="9.56 9.56"/>
<path d="M454.515 837.737C454.901 836.467 456.445 835.689 457.979 836.007C458.758 836.169 459.409 836.579 459.811 837.164C459.985 837.415 459.922 837.761 459.669 837.933C459.418 838.106 459.073 838.044 458.899 837.791C458.663 837.448 458.245 837.193 457.754 837.092C456.797 836.892 455.796 837.334 455.576 838.058L454.425 841.858C454.351 842.103 454.121 842.259 453.876 842.251C453.829 842.25 453.783 842.242 453.735 842.227C453.442 842.137 453.278 841.829 453.365 841.536L454.515 837.737ZM441.724 836.55C442.164 835.994 442.842 835.628 443.631 835.52C445.176 835.309 446.671 836.187 446.969 837.48L447.86 841.349C447.928 841.647 447.742 841.943 447.444 842.012C447.395 842.024 447.348 842.029 447.301 842.027C447.057 842.019 446.838 841.847 446.78 841.598L445.889 837.729C445.72 836.99 444.752 836.483 443.781 836.617C443.284 836.685 442.851 836.911 442.592 837.238C442.402 837.478 442.054 837.518 441.814 837.327C441.574 837.138 441.534 836.79 441.724 836.55Z" fill="#232323"/>
<path d="M445.255 867.59C445.255 867.59 448.408 869.536 449.283 872.506C449.365 872.782 449.734 872.795 449.834 872.525C450.907 869.62 454.186 867.892 454.186 867.892L445.255 867.59Z" fill="#3A3A3A"/>
<path d="M459.039 860.26C459.24 854.323 450.397 847.788 450.397 847.788C450.397 847.788 441.132 853.709 440.931 859.646C440.73 865.583 444.669 869.12 449.669 869.29C454.668 869.459 458.838 866.197 459.039 860.26Z" fill="#FFD731"/>
<path d="M441.121 858.371C442.289 858.919 443.512 859.351 444.778 859.681C444.984 855.543 449.555 851.422 452.272 849.337C451.184 848.362 450.395 847.788 450.395 847.788C450.395 847.788 442.415 852.888 441.121 858.371ZM445.441 863.979C443.966 863.655 442.548 863.19 441.213 862.584C442.167 866.735 445.566 869.145 449.667 869.284C450.331 869.306 450.971 869.263 451.6 869.167C448.793 868.537 446.508 866.739 445.441 863.979Z" fill="#D9B705"/>
<path d="M440.937 859.648C440.901 860.709 441.004 861.685 441.216 862.59C443.822 863.765 446.741 864.433 449.83 864.537C452.918 864.642 455.876 864.174 458.556 863.178C458.828 862.289 458.997 861.322 459.033 860.261C459.047 859.831 459.008 859.401 458.928 858.968C456.192 860.038 453.151 860.53 449.969 860.422C446.787 860.314 443.787 859.618 441.129 858.365C441.02 858.792 440.952 859.218 440.937 859.648Z" fill="#3A3A3A"/>
<path d="M440.936 859.642C440.923 860.02 440.924 860.372 440.951 860.725C440.966 861.051 440.994 861.378 441.036 861.692C441.091 861.994 441.146 862.296 441.214 862.585C442.549 863.19 443.967 863.656 445.442 863.979C444.962 862.764 444.723 861.348 444.776 859.773L444.78 859.681C443.513 859.352 442.29 858.919 441.122 858.371C441.063 858.578 441.03 858.785 440.996 859.006C440.963 859.213 440.943 859.421 440.936 859.642Z" fill="#2D2D2D"/>
<path d="M450.278 851.279C446.198 851.14 442.981 848.369 443.092 845.087C443.203 841.806 446.601 839.258 450.681 839.397C454.761 839.535 457.978 842.307 457.867 845.588C457.756 848.869 454.358 851.417 450.278 851.279Z" fill="#FFD731"/>
<path d="M443.096 845.09C442.985 848.371 446.202 851.139 450.277 851.277C450.616 851.289 450.942 851.287 451.268 851.259C448.477 850.173 446.587 847.841 446.676 845.211C446.766 842.568 448.822 840.37 451.694 839.476C451.369 839.426 451.018 839.401 450.68 839.39C446.605 839.252 443.207 841.809 443.096 845.09Z" fill="#D9B705"/>
<path d="M463.888 858.945C463.839 859.837 463.085 860.527 462.193 860.52C457.499 860.485 452.317 858.87 450.574 854.347C449.788 852.268 450.443 850.359 451.863 849.179C453.284 847.999 455.471 847.547 457.747 848.386C462.631 850.218 464.117 854.821 463.888 858.945Z" fill="#DAF1F2"/>
<path d="M443.023 847.888C445.35 847.205 447.502 847.804 448.839 849.077C450.176 850.35 450.701 852.301 449.776 854.32C447.729 858.715 442.452 859.976 437.766 859.693C436.875 859.639 436.17 858.899 436.181 858.007C436.232 853.877 438.025 849.385 443.023 847.888Z" fill="#DAF1F2"/>
<path d="M455.555 849.815C456.067 849.832 456.584 849.936 457.095 850.125C457.772 850.379 458.394 850.711 458.941 851.113C459.186 851.295 459.24 851.641 459.058 851.887C458.946 852.041 458.769 852.119 458.593 852.113C458.485 852.109 458.376 852.074 458.284 852.006C457.819 851.664 457.288 851.38 456.708 851.162C456.31 851.016 455.91 850.935 455.517 850.921C455.212 850.911 454.972 850.655 454.982 850.349C454.992 850.043 455.249 849.804 455.555 849.815ZM460.684 852.975C460.74 853.063 460.794 853.15 460.846 853.241C461 853.505 460.91 853.844 460.647 853.998C460.554 854.052 460.452 854.077 460.349 854.074C460.165 854.068 459.988 853.97 459.89 853.799L459.753 853.575C459.587 853.318 459.661 852.975 459.918 852.811C460.177 852.645 460.518 852.718 460.684 852.975Z" fill="#F9FEFC"/>
</svg>
