<svg width="482" height="39" viewBox="0 0 482 39" fill="none" xmlns="http://www.w3.org/2000/svg">
<path d="M478.698 31.8775C478.698 32.7129 479.216 33.4146 480.269 33.966C481.321 34.534 481.839 35.3025 481.839 36.2716C481.839 36.6391 481.689 36.9733 481.405 37.3074C481.121 37.6416 480.703 37.7919 480.152 37.7919H470.01C468.857 37.7919 468.273 37.2907 468.273 36.2716C468.273 35.4362 468.774 34.7345 469.793 34.1497C470.812 33.565 471.313 32.8132 471.313 31.8608V11.6784C471.313 10.4755 470.812 9.60669 469.793 9.03864C468.774 8.47059 468.273 7.86913 468.273 7.21755C468.273 6.44901 469.559 5.27951 472.115 3.70903C474.688 2.13854 476.359 1.33656 477.161 1.33656C477.595 1.33656 477.946 1.4034 478.197 1.55377C478.447 1.70413 478.615 2.03827 478.681 2.58961V31.8608L478.698 31.8775ZM447.906 21.5023C447.906 24.1254 448.775 26.8821 450.496 29.8225C452.217 32.7463 454.222 34.2166 456.494 34.2166C457.53 34.2166 458.482 33.7655 459.334 32.88C460.17 31.9778 460.604 30.9754 460.604 29.8393C460.604 26.8487 459.602 23.9249 457.63 21.0512C455.659 18.1775 453.57 16.7407 451.365 16.7407C450.245 16.7407 449.393 17.2587 448.809 18.3279C448.207 19.3805 447.906 20.4331 447.906 21.4856V21.5023ZM453.821 13.4828C457.764 13.4828 461.206 14.7358 464.129 17.2419C467.053 19.748 468.523 22.9391 468.523 26.8319C468.523 30.7248 467.137 33.448 464.346 35.4195C461.556 37.4077 458.148 38.3934 454.088 38.3934C449.427 38.3934 446.002 37.2072 443.813 34.8515C441.625 32.4957 440.539 29.5051 440.539 25.913C440.539 22.7554 441.741 19.8984 444.147 17.3255C446.553 14.7526 449.778 13.4828 453.838 13.4828H453.821ZM420.039 21.5023C420.039 24.1254 420.907 26.8821 422.628 29.8225C424.349 32.7463 426.354 34.2166 428.626 34.2166C429.662 34.2166 430.614 33.7655 431.466 32.88C432.302 31.9778 432.736 30.9754 432.736 29.8393C432.736 26.8487 431.734 23.9249 429.762 21.0512C427.791 18.1775 425.702 16.7407 423.497 16.7407C422.378 16.7407 421.526 17.2587 420.941 18.3279C420.339 19.3805 420.039 20.4331 420.039 21.4856V21.5023ZM425.953 13.4828C429.896 13.4828 433.338 14.7358 436.262 17.2419C439.185 19.748 440.655 22.9391 440.655 26.8319C440.655 30.7248 439.269 33.448 436.479 35.4195C433.689 37.4077 430.28 38.3934 426.22 38.3934C421.559 38.3934 418.134 37.2072 415.945 34.8515C413.757 32.4957 412.671 29.5051 412.671 25.913C412.671 22.7554 413.874 19.8984 416.279 17.3255C418.685 14.7526 421.91 13.4828 425.953 13.4828ZM391.452 1.33656C391.954 1.33656 392.305 1.4034 392.505 1.52035C392.706 1.654 392.806 1.97146 392.806 2.47268V16.2395L394.76 14.669C395.947 13.8671 397.45 13.4661 399.255 13.4661C402.546 13.4661 404.852 15.7216 406.205 20.2158L409.68 32.6795C409.897 33.1139 410.465 33.6151 411.384 34.1832C412.303 34.7512 412.771 35.4195 412.771 36.2215C412.771 36.6558 412.637 37.0067 412.37 37.2907C412.103 37.558 411.652 37.7418 411.033 37.8086H400.558C399.372 37.8086 398.77 37.2907 398.77 36.2381C398.77 35.5197 399.171 34.9016 399.956 34.3836C400.758 33.8824 401.143 33.281 401.143 32.596C401.143 30.8584 400.658 28.1351 399.672 24.4261C398.703 20.7171 397.434 18.8792 395.88 18.8792C394.911 18.8792 394.142 19.3303 393.608 20.2158C393.073 21.1013 392.789 22.1706 392.789 23.4069V31.5768C392.789 32.88 393.274 33.7822 394.259 34.3001C395.278 34.7011 395.78 35.3527 395.78 36.2549C395.78 36.6224 395.613 36.9733 395.262 37.3241C394.911 37.675 394.476 37.8421 393.925 37.8421H384.001C382.882 37.8421 382.314 37.3241 382.314 36.2716C382.314 35.503 382.831 34.8013 383.867 34.1497C384.903 33.4981 385.421 32.596 385.421 31.4265V11.7786C385.421 10.5089 384.903 9.64012 383.867 9.18902C382.831 8.73793 382.314 8.20328 382.314 7.58511C382.314 6.81657 383.684 5.59694 386.407 3.90951C389.13 2.22207 390.818 1.38668 391.419 1.38668L391.452 1.33656ZM371.621 13.3157C373.609 13.3157 375.731 13.6499 377.986 14.3015C380.242 14.953 381.378 15.8552 381.378 17.0247C381.378 17.7431 380.91 19.0797 379.975 21.0011C379.106 22.9893 378.287 23.9917 377.535 23.9917C377.001 23.9917 376.199 22.7386 375.179 20.2158C374.144 17.693 372.623 16.44 370.602 16.44C369.081 16.44 367.812 17.1584 366.809 18.6119C365.79 20.0655 365.289 22.1372 365.289 24.8104C365.289 27.7843 365.974 30.14 367.327 31.8775C368.68 33.6151 370.585 34.4839 373.058 34.4839C374.728 34.4839 376.182 33.9827 377.452 32.9635L381.461 29.7557C381.862 29.7557 382.146 29.8894 382.297 30.1567C382.464 30.424 382.581 30.8584 382.648 31.4432C381.896 32.9969 380.71 34.5841 379.089 36.2048C377.485 37.8254 374.545 38.6273 370.268 38.6273C366.325 38.6273 363.05 37.5079 360.427 35.2858C357.804 33.0471 356.501 30.1066 356.501 26.4477C356.501 23.2566 357.754 20.266 360.277 17.4926C362.783 14.7191 366.575 13.3324 371.638 13.3324L371.621 13.3157ZM321.449 9.27254C321.449 6.6662 322.418 4.56108 324.356 2.95718C326.294 1.33657 329.134 0.534621 332.893 0.534621C335.316 0.534621 337.304 0.73511 338.858 1.13609L341.514 1.73755C341.949 1.73755 342.45 1.45353 343.035 0.902184C343.619 0.334135 344.187 0.0334146 344.772 0C345.424 0 346.042 0.350846 346.61 1.03585L348.832 3.85939L351.438 7.61853C352.307 8.9217 352.742 9.72364 352.742 10.0077C352.742 10.9433 352.341 11.4278 351.555 11.4278L343.252 7.13401C340.729 5.86425 338.39 5.22937 336.251 5.22937C335.015 5.22937 334.113 5.46327 333.511 5.93108C332.91 6.39888 332.609 7.00036 332.609 7.71877C332.609 8.97182 335.115 10.4922 340.128 12.2464C345.14 14.0007 349.2 15.8719 352.307 17.8434C355.415 19.8149 356.969 22.8723 356.969 26.999C356.969 31.1257 355.515 34.0328 352.625 35.9374C349.734 37.8254 346.242 38.7777 342.149 38.7777C339.944 38.7777 337.137 38.4435 333.745 37.7752L328.048 36.706C327.547 36.706 327.029 37.0568 326.528 37.7418C326.027 38.4268 325.375 38.7777 324.573 38.7777C323.855 38.7777 323.236 38.4101 322.735 37.6917L320.831 34.3669L318.609 29.9061C318.274 29.2211 318.024 28.653 317.857 28.1852C317.673 27.7341 317.573 27.3833 317.539 27.116C317.539 26.715 317.673 26.3976 317.924 26.1302C318.174 25.8796 318.542 25.7125 319.01 25.6457C321.8 27.6339 324.857 29.4216 328.182 31.0088C331.507 32.5793 335.216 33.3812 339.309 33.3812C341.548 33.3812 343.285 32.9134 344.522 31.9945C345.758 31.0756 346.359 30.023 346.359 28.8201C346.359 26.8654 343.369 24.6433 337.404 22.1372C331.44 19.6311 327.296 17.7432 324.957 16.44C322.618 15.1368 321.465 12.7477 321.465 9.27254H321.449ZM284.977 13.4828C286.38 13.4828 287.683 13.6499 288.886 13.9673L291.977 15.0533C292.378 15.0533 292.829 14.786 293.364 14.268C293.882 13.7501 294.366 13.4828 294.801 13.4828C295.202 13.4828 296.037 14.6356 297.323 16.9579C298.61 19.2802 299.245 20.7505 299.245 21.3686C299.312 21.9868 298.894 22.2876 297.992 22.2876C296.471 20.9844 295.068 19.9485 293.765 19.2134C292.462 18.4616 291.409 17.9771 290.59 17.7097C289.772 17.4591 288.869 17.3255 287.85 17.3255C287.099 17.3255 286.447 17.4424 285.929 17.6763C285.411 17.9102 285.11 18.2945 285.027 18.8459C285.027 19.7146 286.614 20.7004 289.772 21.7863C292.929 22.8723 295.486 24.0251 297.424 25.2113C299.362 26.4143 300.331 28.3857 300.331 31.1424C300.331 33.3979 299.462 35.1355 297.724 36.3718C295.987 37.6082 293.932 38.2263 291.543 38.2263C289.555 38.2263 288.034 38.0927 286.982 37.8421L283.506 37.0234L282.471 37.8588C281.969 38.3767 281.468 38.6774 281 38.761C280.533 38.761 279.597 37.4077 278.177 34.7011C276.773 31.9945 276.055 30.2903 276.055 29.5552C276.055 29.1542 276.172 28.8535 276.372 28.6363C276.59 28.4191 276.89 28.3022 277.291 28.3022C278.778 29.7557 280.549 31.0589 282.604 32.2284C284.659 33.3812 286.664 33.966 288.619 33.966C289.638 33.966 290.457 33.7822 291.108 33.4146C291.76 33.0471 292.077 32.5458 292.077 31.8943C292.077 30.9921 290.49 29.9395 287.332 28.7366C284.175 27.5337 281.719 26.431 279.981 25.3951C278.244 24.3593 277.375 22.6885 277.375 20.3662C277.375 18.1942 278.11 16.4901 279.597 15.2705C281.084 14.0509 282.855 13.4494 284.91 13.4494L284.977 13.4828ZM272.012 13.4828H272.73C272.981 13.5496 273.115 13.9172 273.115 14.5688V32.195C273.115 33.0638 273.649 33.7655 274.718 34.3168C275.788 34.8682 276.322 35.5532 276.322 36.3885C276.322 36.7227 276.139 37.0401 275.788 37.3408C275.42 37.6416 274.819 37.8086 273.95 37.8086H264.56C263.875 37.8086 263.391 37.6583 263.09 37.3743C262.873 37.0902 262.723 36.7561 262.656 36.3885C262.656 35.5532 263.174 34.8682 264.21 34.3502C265.245 33.8323 265.763 33.1139 265.763 32.195V21.5858C265.763 20.9343 265.245 20.433 264.21 20.0822C263.174 19.7313 262.656 19.1466 262.656 18.3112C262.656 17.7264 264.059 16.7741 266.849 15.4543C269.656 14.1344 271.377 13.4661 272.029 13.4661L272.012 13.4828ZM270.408 3.4751C271.344 3.4751 272.029 3.67559 272.446 4.07656C272.881 4.47754 273.098 5.19596 273.098 6.24852C273.098 7.23425 272.446 8.20329 271.126 9.18902C269.823 10.1748 268.37 10.6593 266.782 10.6593C265.78 10.6593 265.062 10.4588 264.627 10.0578C264.226 9.58998 264.026 8.9384 264.026 8.10303C264.026 6.95023 264.761 5.88095 266.248 4.91193C267.718 3.94291 269.105 3.4751 270.391 3.4751H270.408ZM247.619 13.4828C249.023 13.4828 250.326 13.6499 251.529 13.9673L254.619 15.0533C255.02 15.0533 255.472 14.786 256.006 14.268C256.524 13.7501 257.009 13.4828 257.443 13.4828C257.844 13.4828 258.679 14.6356 259.966 16.9579C261.252 19.2802 261.887 20.7505 261.887 21.3686C261.954 21.9868 261.536 22.2876 260.634 22.2876C259.114 20.9844 257.71 19.9485 256.407 19.2134C255.104 18.4616 254.051 17.9771 253.233 17.7097C252.414 17.4591 251.512 17.3255 250.493 17.3255C249.741 17.3255 249.089 17.4424 248.571 17.6763C248.054 17.9102 247.753 18.2945 247.669 18.8459C247.669 19.7146 249.256 20.7004 252.414 21.7863C255.572 22.8723 258.128 24.0251 260.066 25.2113C262.004 26.4143 262.973 28.3857 262.973 31.1424C262.973 33.3979 262.104 35.1355 260.367 36.3718C258.629 37.6082 256.574 38.2263 254.185 38.2263C252.197 38.2263 250.677 38.0927 249.624 37.8421L246.149 37.0234L245.113 37.8588C244.612 38.3767 244.127 38.6774 243.643 38.761C243.175 38.761 242.239 37.4077 240.819 34.7011C239.416 31.9945 238.697 30.2903 238.697 29.5552C238.697 29.1542 238.798 28.8535 239.015 28.6363C239.232 28.4191 239.533 28.3022 239.934 28.3022C241.421 29.7557 243.192 31.0589 245.247 32.2284C247.302 33.3812 249.307 33.966 251.261 33.966C252.28 33.966 253.099 33.7822 253.751 33.4146C254.402 33.0471 254.72 32.5458 254.72 31.8943C254.72 30.9921 253.133 29.9395 249.975 28.7366C246.817 27.5337 244.361 26.431 242.624 25.3951C240.886 24.3593 240.017 22.6885 240.017 20.3662C240.017 18.1942 240.752 16.4901 242.239 15.2705C243.726 14.0509 245.497 13.4494 247.552 13.4494L247.619 13.4828ZM219.434 21.7863V23.2065C219.434 23.6409 219.467 24.0752 219.534 24.5096C219.601 24.944 219.835 25.5455 220.202 26.2973L228.606 22.2207C228.606 21.1849 228.105 20.0989 227.103 18.9795C226.083 17.8601 224.964 17.3088 223.711 17.3088L222.257 17.4758C221.606 17.5928 221.038 17.9938 220.553 18.6955C220.069 19.3972 219.768 19.9485 219.634 20.3495C219.501 20.7505 219.451 21.235 219.451 21.803L219.434 21.7863ZM225.365 13.4828C228.289 13.4828 230.812 14.2847 232.933 15.9053C235.055 17.526 236.342 19.4306 236.776 21.5858V22.1372L235.957 22.6718L221.856 29.5886C222.007 30.424 222.775 31.3262 224.195 32.3119C225.682 33.2141 227.303 33.6652 229.074 33.6652C231.096 33.6652 232.883 33.0136 234.437 31.7105C235.991 30.4073 237.077 29.7557 237.695 29.7557C238.53 29.7557 238.948 30.2235 238.948 31.1758C238.948 32.2618 237.712 33.7488 235.256 35.6367C232.8 37.5246 229.458 38.4602 225.215 38.4602C220.971 38.4602 217.73 37.3074 215.458 35.0185C213.185 32.7129 212.033 29.7557 212.033 26.1469C212.033 22.5382 213.235 19.3304 215.625 16.9913C218.03 14.6523 221.272 13.4828 225.348 13.4828H225.365ZM198.232 13.4828C200.505 13.4828 202.275 14.5855 203.545 16.8076C204.815 19.0129 205.985 22.1539 207.07 26.1971C208.156 30.2402 208.808 32.479 209.025 32.9134C209.242 33.3478 209.81 33.849 210.713 34.4338C211.615 35.0185 212.066 35.7035 212.066 36.5055C212.066 36.7561 211.916 37.0234 211.598 37.2907C211.297 37.558 210.88 37.7418 210.379 37.8086H199.368C198.282 37.8086 197.748 37.3743 197.748 36.5055C197.748 35.6367 198.316 34.9517 199.452 34.4338C200.588 33.9326 201.123 33.3645 201.056 32.7463C200.521 28.8201 199.753 25.629 198.75 23.173C197.764 20.7004 196.612 19.4807 195.309 19.4807C194.122 19.4807 193.304 19.8483 192.903 20.6001C192.485 21.3519 192.285 22.3377 192.285 23.574V32.1783C192.285 33.448 192.719 34.2834 193.588 34.6844C194.456 35.0185 194.891 35.62 194.891 36.5389C194.891 36.8229 194.724 37.1069 194.373 37.3576C194.022 37.6082 193.604 37.7752 193.103 37.8421H183.446C182.394 37.8421 181.876 37.4077 181.876 36.5389C181.876 35.7369 182.377 35.0519 183.396 34.4672C184.415 33.8824 184.917 33.0638 184.917 32.0112V23.1897C184.917 22.0703 184.415 21.3519 183.396 21.0345C182.377 20.7338 181.876 20.1991 181.876 19.4306C181.876 18.8124 183.229 17.6763 185.936 16.0056C188.642 14.3349 190.33 13.4995 190.981 13.4995C191.265 13.4995 191.549 13.5997 191.817 13.8002C192.084 14.0007 192.234 14.3516 192.285 14.8695V17.693C193.187 16.3565 194.089 15.3206 194.974 14.5855C195.86 13.8671 196.963 13.4995 198.249 13.4995L198.232 13.4828ZM162.545 21.7863V23.2065C162.545 23.6409 162.579 24.0752 162.646 24.5096C162.713 24.944 162.946 25.5455 163.314 26.2973L171.718 22.2207C171.718 21.1849 171.217 20.0989 170.214 18.9795C169.195 17.8601 168.076 17.3088 166.823 17.3088L165.369 17.4758C164.717 17.5928 164.149 17.9938 163.665 18.6955C163.18 19.3972 162.88 19.9485 162.746 20.3495C162.612 20.7505 162.562 21.235 162.562 21.803L162.545 21.7863ZM168.493 13.4828C171.417 13.4828 173.94 14.2847 176.062 15.9053C178.184 17.526 179.47 19.4306 179.904 21.5858V22.1372L179.086 22.6718L164.985 29.5886C165.135 30.424 165.904 31.3262 167.324 32.3119C168.811 33.2141 170.431 33.6652 172.202 33.6652C174.224 33.6652 176.012 33.0136 177.565 31.7105C179.119 30.4073 180.205 29.7557 180.823 29.7557C181.659 29.7557 182.076 30.2235 182.076 31.1758C182.076 32.2618 180.84 33.7488 178.384 35.6367C175.928 37.5246 172.587 38.4602 168.343 38.4602C164.099 38.4602 160.858 37.3074 158.586 35.0185C156.314 32.7129 155.161 29.7557 155.161 26.1469C155.161 22.5382 156.364 19.3304 158.753 16.9913C161.159 14.6523 164.4 13.4828 168.477 13.4828H168.493ZM155.127 35.8038C155.127 36.706 154.944 37.2573 154.593 37.4745C154.225 37.6917 153.256 37.8086 151.669 37.8086H143.583C134.945 37.8086 128.062 36.4553 122.949 33.7321C117.837 31.0088 115.28 26.3641 115.28 19.7647C115.28 14.6523 117.219 10.3251 121.078 6.78317C124.954 3.24122 130.133 1.45353 136.649 1.45353L140.291 1.62061L144.084 1.88791C144.401 1.88791 144.836 1.6206 145.354 1.08597C145.872 0.551331 146.306 0.284021 146.623 0.284021C147.024 0.284021 147.308 0.334128 147.492 0.451079L148.144 1.05254C148.428 1.23632 149.196 2.80682 150.449 5.78072C151.702 8.77133 152.354 10.5089 152.421 11.0101C152.421 11.6617 152.337 12.1295 152.17 12.3968C152.003 12.6641 151.602 12.7978 150.951 12.7978C148.896 11.0602 146.74 9.52317 144.502 8.16988C142.263 6.83329 139.89 6.16498 137.401 6.16498C134.912 6.16498 132.472 7.13401 130.217 9.07206C127.961 11.0101 126.825 14.268 126.825 18.8459C126.825 23.4237 127.978 26.9489 130.3 29.1375C132.623 31.3095 135.262 32.3955 138.22 32.3955H140.492C141.511 32.3955 142.213 32.1616 142.63 31.7105C143.048 31.2594 143.249 30.4741 143.249 29.338V24.9273C143.249 24.5932 143.165 24.2423 142.981 23.8413C142.797 23.4403 142.279 23.0728 141.427 22.7554C140.575 22.4212 140.158 21.7529 140.158 20.7338C140.158 20.1824 140.375 19.748 140.809 19.4306C141.244 19.0964 142.029 18.9461 143.148 18.9461H152.254C154.275 18.9461 155.295 19.5475 155.295 20.7338C155.295 21.636 154.877 22.2708 154.041 22.6384C153.206 23.006 152.705 23.3401 152.521 23.6408C152.337 23.9416 152.22 24.376 152.137 24.9273V31.8274C152.137 32.6628 152.621 33.3979 153.607 34.0495C154.142 34.3335 154.543 34.6175 154.777 34.8682C155.01 35.1188 155.127 35.4362 155.127 35.7871V35.8038ZM78.5578 21.7863V23.2065C78.5578 23.6409 78.5912 24.0752 78.658 24.5096C78.7249 24.944 78.9588 25.5455 79.3263 26.2973L87.7301 22.2207C87.7301 21.1849 87.2289 20.0989 86.2265 18.9795C85.2073 17.8601 84.0879 17.3088 82.8349 17.3088L81.3813 17.4758C80.7298 17.5928 80.1617 17.9938 79.6772 18.6955C79.1927 19.3972 78.892 19.9485 78.7583 20.3495C78.6246 20.7505 78.5745 21.235 78.5745 21.803L78.5578 21.7863ZM84.5056 13.4828C87.4294 13.4828 89.9522 14.2847 92.074 15.9053C94.1959 17.526 95.4823 19.4306 95.9167 21.5858V22.1372L95.0981 22.6718L80.9971 29.5886C81.1474 30.424 81.916 31.3262 83.3361 32.3119C84.8231 33.2141 86.4437 33.6652 88.2146 33.6652C90.2362 33.6652 92.0239 33.0136 93.5777 31.7105C95.1315 30.4073 96.2174 29.7557 96.8356 29.7557C97.671 29.7557 98.0887 30.2235 98.0887 31.1758C98.0887 32.2618 96.8523 33.7488 94.3963 35.6367C91.9404 37.5246 88.5989 38.4602 84.3552 38.4602C80.1116 38.4602 76.8704 37.3074 74.5982 35.0185C72.326 32.7129 71.1732 29.7557 71.1732 26.1469C71.1732 22.5382 72.3761 19.3304 74.7653 16.9913C77.1711 14.6523 80.4123 13.4828 84.4889 13.4828H84.5056ZM49.8881 1.33656C50.3893 1.33656 50.7401 1.4034 50.9406 1.52035C51.1411 1.654 51.2413 1.97146 51.2413 2.47268V16.2395L53.1961 14.669C54.3823 13.8671 55.886 13.4661 57.6904 13.4661C60.9817 13.4661 63.2873 15.7216 64.6406 20.2158L68.1157 32.6795C68.3329 33.1139 68.901 33.6151 69.8199 34.1832C70.7388 34.7512 71.2066 35.4195 71.2066 36.2215C71.2066 36.6558 71.0729 37.0067 70.8056 37.2907C70.5383 37.558 70.0872 37.7418 69.469 37.8086H58.9935C57.8073 37.8086 57.2059 37.2907 57.2059 36.2381C57.2059 35.5197 57.6068 34.9016 58.3921 34.3836C59.194 33.8824 59.5783 33.281 59.5783 32.596C59.5783 30.8584 59.0938 28.1351 58.1081 24.4261C57.139 20.7171 55.8693 18.8792 54.3155 18.8792C53.3465 18.8792 52.5779 19.3303 52.0433 20.2158C51.5087 21.1013 51.2246 22.1706 51.2246 23.4069V31.5768C51.2246 32.88 51.7091 33.7822 52.6949 34.3001C53.714 34.7011 54.2152 35.3527 54.2152 36.2549C54.2152 36.6224 54.0482 36.9733 53.6973 37.3241C53.3465 37.675 52.9121 37.8421 52.3607 37.8421H42.4366C41.3172 37.8421 40.7491 37.3241 40.7491 36.2716C40.7491 35.503 41.2671 34.8013 42.3029 34.1497C43.3388 33.4981 43.8567 32.596 43.8567 31.4265V11.7786C43.8567 10.5089 43.3388 9.64012 42.3029 9.18902C41.2671 8.73793 40.7491 8.20328 40.7491 7.58511C40.7491 6.81657 42.1191 5.59694 44.8424 3.90951C47.5657 2.22207 49.2532 1.38668 49.8546 1.38668L49.8881 1.33656ZM15.9889 6.46572H12.8479C10.4588 6.46572 8.40378 7.1006 6.66622 8.37036L1.52037 12.5639C0.501219 12.5639 0 12.0627 0 11.0435C0 10.4922 0.167075 9.90743 0.484514 9.25584L3.95963 1.63731C4.17683 1.23633 4.46085 0.885482 4.82841 0.568043C5.19597 0.267311 5.66378 0.10024 6.23183 0.10024C6.48244 0.10024 6.98366 0.317434 7.75219 0.751824C8.43719 1.08597 9.08878 1.26975 9.70695 1.35329H31.4098C32.0948 1.35329 32.7631 1.15278 33.3979 0.735101C34.0328 0.317418 34.534 0.116938 34.8849 0.116938C35.4696 0.116938 35.904 0.233884 36.2215 0.451079C36.5222 0.668274 36.8563 1.06925 37.2239 1.65401L40.6489 9.27254C40.9663 9.99095 41.1334 10.6258 41.1334 11.1772C41.1334 12.1128 40.6656 12.5973 39.73 12.5973C37.8087 10.8932 36.021 9.45634 34.3335 8.27012C32.6461 7.0839 30.6746 6.49915 28.3857 6.49915H25.2448V31.6436C25.2448 32.5792 25.6457 33.2476 26.431 33.5984L28.3857 34.4672C28.9204 34.6844 29.2044 35.1188 29.2044 35.7703C29.2044 36.5389 29.0039 37.0735 28.5862 37.3743C28.1685 37.675 27.1494 37.8421 25.5288 37.8421H15.7717C14.1511 37.8421 13.1152 37.6917 12.6809 37.4077C12.2465 37.1237 12.0293 36.5723 12.0293 35.7703C12.0293 35.219 12.1963 34.8515 12.5138 34.6343L14.1344 33.8657C14.8862 33.5316 15.3874 33.1974 15.6046 32.8299C15.8218 32.4623 15.9722 32.0613 16.039 31.6269V6.48242L15.9889 6.46572Z" fill="white"/>
</svg>
