<svg width="40" height="40" viewBox="0 0 40 40" fill="none" xmlns="http://www.w3.org/2000/svg">
<path d="M21.1168 31.6666C21.5553 31.6665 21.9895 31.5799 22.3945 31.4117C22.7994 31.2435 23.1673 30.9971 23.4768 30.6866L33.7335 20.3999C35.6099 18.5235 36.6641 15.9785 36.6641 13.3249C36.6641 10.6713 35.6099 8.1263 33.7335 6.2499C31.8571 4.37349 29.3121 3.31934 26.6585 3.31934C24.0049 3.31934 21.4599 4.37349 19.5835 6.2499L9.31016 16.5232C8.685 17.1482 8.33368 17.9959 8.3335 18.8799V29.9999C8.3335 30.4419 8.50909 30.8659 8.82165 31.1784C9.13421 31.491 9.55814 31.6666 10.0002 31.6666H21.1168Z" stroke="black" stroke-width="2.5" stroke-linecap="round" stroke-linejoin="round"/>
<path d="M26.6668 13.3334L3.3335 36.6667" stroke="black" stroke-width="2.5" stroke-linecap="round" stroke-linejoin="round"/>
<path d="M29.1667 25H15" stroke="black" stroke-width="2.5" stroke-linecap="round" stroke-linejoin="round"/>
</svg>
