<svg width="40" height="40" viewBox="0 0 40 40" fill="none" xmlns="http://www.w3.org/2000/svg">
<path d="M4.9868 27.2367C5.23187 27.8549 5.28643 28.5322 5.14347 29.1817L3.36847 34.665C3.31128 34.9431 3.32606 35.2312 3.41143 35.5019C3.49679 35.7727 3.64991 36.0172 3.85625 36.2121C4.06259 36.4071 4.31532 36.5462 4.59047 36.6161C4.86562 36.686 5.15407 36.6845 5.42847 36.6117L11.1168 34.9484C11.7297 34.8268 12.3644 34.8799 12.9485 35.1017C16.5074 36.7637 20.5391 37.1154 24.3321 36.0946C28.125 35.0737 31.4356 32.7461 33.6796 29.5223C35.9237 26.2985 36.957 22.3857 36.5973 18.4743C36.2376 14.5628 34.508 10.9041 31.7136 8.14368C28.9192 5.38322 25.2396 3.69842 21.3241 3.38651C17.4086 3.07461 13.5087 4.15566 10.3125 6.43892C7.11639 8.72218 4.82935 12.0609 3.85496 15.8661C2.88056 19.6712 3.28142 23.6983 4.9868 27.2367Z" stroke="black" stroke-width="2.5" stroke-linecap="round" stroke-linejoin="round"/>
</svg>
