<svg width="40" height="40" viewBox="0 0 40 40" fill="none" xmlns="http://www.w3.org/2000/svg">
<path d="M23.3333 15.8933V11.6667C23.3333 9.89856 24.0357 8.20286 25.286 6.95262C26.5362 5.70238 28.2319 5 30 5H32.5C32.721 5 32.933 5.0878 33.0893 5.24408C33.2455 5.40036 33.3333 5.61232 33.3333 5.83333V8.33333C33.3333 10.1014 32.631 11.7971 31.3807 13.0474C30.1305 14.2976 28.4348 15 26.6667 15C24.8986 15 23.2029 15.7024 21.9526 16.9526C20.7024 18.2029 20 19.8986 20 21.6667C20 25 21.6667 26.6667 21.6667 30C21.6667 31.8031 21.0819 33.5575 20 35" stroke="black" stroke-width="2.5" stroke-linecap="round" stroke-linejoin="round"/>
<path d="M6.6665 15C7.90458 14.0715 9.37678 13.506 10.9181 13.3671C12.4595 13.2281 14.0091 13.521 15.3933 14.2132C16.7775 14.9053 17.9416 15.9692 18.7553 17.2856C19.5689 18.6021 19.9998 20.1191 19.9998 21.6667C18.7618 22.5953 17.2896 23.1607 15.7482 23.2997C14.2069 23.4387 12.6573 23.1457 11.2731 22.4536C9.88884 21.7615 8.7247 20.6976 7.91108 19.3811C7.09746 18.0647 6.6665 16.5476 6.6665 15Z" stroke="black" stroke-width="2.5" stroke-linecap="round" stroke-linejoin="round"/>
<path d="M8.3335 35H31.6668" stroke="black" stroke-width="2.5" stroke-linecap="round" stroke-linejoin="round"/>
</svg>
