<svg width="40" height="40" viewBox="0 0 40 40" fill="none" xmlns="http://www.w3.org/2000/svg">
<path d="M20 3.33337V6.66671" stroke="black" stroke-width="2.5" stroke-linecap="round" stroke-linejoin="round"/>
<path d="M8.2168 8.2168L10.5668 10.5668" stroke="black" stroke-width="2.5" stroke-linecap="round" stroke-linejoin="round"/>
<path d="M33.3335 20H36.6668" stroke="black" stroke-width="2.5" stroke-linecap="round" stroke-linejoin="round"/>
<path d="M31.7831 8.2168L29.4331 10.5668" stroke="black" stroke-width="2.5" stroke-linecap="round" stroke-linejoin="round"/>
<path d="M26.5781 21.0832C26.7832 19.8407 26.6322 18.5655 26.1426 17.4053C25.653 16.2451 24.8447 15.2473 23.8115 14.5274C22.7782 13.8075 21.5622 13.395 20.3042 13.3376C19.0462 13.2802 17.7976 13.5804 16.7031 14.2032" stroke="black" stroke-width="2.5" stroke-linecap="round" stroke-linejoin="round"/>
<path d="M21.6666 36.6667H11.6666C10.0899 36.6663 8.54561 36.2187 7.21314 35.3758C5.88066 34.5328 4.81467 33.3292 4.13898 31.9046C3.46328 30.48 3.2056 28.8929 3.39586 27.3277C3.58613 25.7625 4.21654 24.2834 5.21386 23.0622C6.21119 21.841 7.53451 20.9278 9.03013 20.4286C10.5258 19.9295 12.1323 19.8649 13.6632 20.2423C15.194 20.6197 16.5864 21.4237 17.6786 22.5609C18.7708 23.6981 19.5179 25.1218 19.8333 26.6667H21.6666C22.9927 26.6667 24.2645 27.1935 25.2021 28.1311C26.1398 29.0688 26.6666 30.3406 26.6666 31.6667C26.6666 32.9927 26.1398 34.2645 25.2021 35.2022C24.2645 36.1399 22.9927 36.6667 21.6666 36.6667Z" stroke="black" stroke-width="2.5" stroke-linecap="round" stroke-linejoin="round"/>
</svg>
