<svg width="43" height="43" viewBox="0 0 43 43" fill="none" xmlns="http://www.w3.org/2000/svg">
<path d="M38.1613 24.6872C39.449 25.0074 40.3052 26.509 40.0664 28.0572C39.9447 28.8437 39.5681 29.5148 39.0049 29.9467C38.7632 30.1334 38.4146 30.0873 38.2292 29.8443C38.0439 29.6026 38.0886 29.2539 38.3316 29.0673C38.662 28.814 38.8956 28.3838 38.9716 27.8887C39.1215 26.9219 38.6289 25.9455 37.8948 25.7628L34.041 24.8086C33.7923 24.7465 33.6243 24.5253 33.62 24.2804C33.6192 24.2336 33.6249 24.1865 33.6371 24.1381C33.7114 23.8411 34.0105 23.6612 34.3075 23.7329L38.1613 24.6872ZM38.6904 11.8518C39.2683 12.2626 39.668 12.9214 39.8172 13.7032C40.1071 15.2356 39.3066 16.774 38.0309 17.1376L34.2127 18.2258C33.9184 18.3091 33.6131 18.1385 33.5285 17.8442C33.5146 17.7963 33.5073 17.7495 33.5065 17.7026C33.5022 17.4577 33.6624 17.2308 33.9088 17.1601L37.7269 16.0719C38.4556 15.865 38.9125 14.872 38.7289 13.9098C38.6356 13.4163 38.3872 12.9959 38.0482 12.7542C37.7988 12.5762 37.7407 12.2306 37.9187 11.9812C38.0955 11.7319 38.441 11.6737 38.6904 11.8518Z" fill="#232323"/>
<path d="M7.87209 16.9704C7.87209 16.9704 6.09034 20.2185 3.16883 21.2454C2.89689 21.3413 2.90333 21.7099 3.17845 21.7963C6.13399 22.7193 8.02804 25.9045 8.02804 25.9045L7.87209 16.9704Z" fill="#3A3A3A"/>
<path d="M15.8994 30.3601C21.839 30.2565 27.9109 21.0898 27.9109 21.0898C27.9109 21.0898 21.5228 12.1407 15.5832 12.2444C9.6436 12.348 6.31346 16.4635 6.40077 21.4653C6.48807 26.467 9.95981 30.4638 15.8994 30.3601Z" fill="#FFD731"/>
<path d="M16.8676 12.3688C16.3803 13.563 16.0111 14.8072 15.7468 16.0887C19.8901 16.0815 24.2397 20.4356 26.4611 23.0418C27.3794 21.9052 27.9124 21.0881 27.9124 21.0881C27.9124 21.0881 22.4097 13.3796 16.8676 12.3688ZM11.4886 16.9709C11.7362 15.4812 12.128 14.0411 12.6645 12.6767C8.56754 13.8427 6.33577 17.3605 6.40739 21.4635C6.41898 22.1278 6.49525 22.7649 6.62339 23.3881C7.1081 20.5522 8.78653 18.1776 11.4886 16.9709Z" fill="#D9B705"/>
<path d="M15.582 12.2511C14.5205 12.2696 13.5511 12.422 12.6579 12.6799C11.6177 15.3431 11.1012 18.2928 11.1551 21.3824C11.209 24.4721 11.8282 27.402 12.9607 30.0272C13.8624 30.2538 14.8365 30.3723 15.898 30.3538C16.3279 30.3463 16.7555 30.2854 17.1836 30.1828C15.9747 27.5055 15.328 24.494 15.2724 21.3106C15.2169 18.1272 15.7581 15.0949 16.8728 12.3771C16.4413 12.2895 16.0119 12.2436 15.582 12.2511Z" fill="#3A3A3A"/>
<path d="M15.5883 12.2489C15.2106 12.2555 14.8591 12.2747 14.5081 12.3199C14.183 12.3516 13.858 12.3964 13.5463 12.4539C13.2479 12.5243 12.9494 12.5947 12.6642 12.6778C12.1278 14.0422 11.736 15.4823 11.4884 16.972C12.6776 16.43 14.0793 16.1189 15.6554 16.0914L15.7466 16.0898C16.0109 14.8083 16.38 13.5641 16.8673 12.3699C16.658 12.3214 16.4492 12.299 16.2273 12.2768C16.0184 12.2544 15.8098 12.245 15.5883 12.2489Z" fill="#2D2D2D"/>
<path d="M24.4202 21.1504C24.349 17.0686 26.9522 13.7133 30.2347 13.656C33.5172 13.5987 36.236 16.8611 36.3072 20.9429C36.3785 25.0246 33.7752 28.3799 30.4927 28.4372C27.2102 28.4945 24.4915 25.2321 24.4202 21.1504Z" fill="#FFD731"/>
<path d="M30.2315 13.6598C26.9491 13.7171 24.3497 17.0719 24.4208 21.1489C24.4267 21.4875 24.4455 21.8129 24.4902 22.1379C25.4308 19.2941 27.6629 17.2877 30.294 17.2418C32.9382 17.1956 35.2392 19.1359 36.2787 21.9582C36.3121 21.6319 36.3189 21.28 36.313 20.9413C36.2419 16.8643 33.5139 13.6025 30.2315 13.6598Z" fill="#D9B705"/>
<path d="M17.4603 35.1355C16.5677 35.1315 15.8399 34.4146 15.8009 33.5228C15.5953 28.8332 16.9419 23.5758 21.3701 21.6027C23.4053 20.7111 25.346 21.2675 26.5971 22.6255C27.8481 23.9834 28.4122 26.1443 27.6905 28.4605C26.1121 33.4327 21.5909 35.152 17.4603 35.1355Z" fill="#DAF1F2"/>
<path d="M27.4331 13.7302C28.2353 16.0198 27.747 18.199 26.5441 19.5998C25.3411 21.0006 23.4198 21.6244 21.3559 20.8044C16.8616 18.9857 15.3323 13.7798 15.3741 9.08591C15.382 8.19326 16.0857 7.45133 16.9763 7.41624C21.1038 7.2556 25.6822 8.81608 27.4331 13.7302Z" fill="#DAF1F2"/>
<path d="M26.1529 26.3453C26.1619 26.8572 26.085 27.3784 25.9221 27.8985C25.7035 28.5877 25.4032 29.2261 25.0301 29.7929C24.8612 30.0473 24.5185 30.1184 24.2628 29.9496C24.1033 29.8456 24.0169 29.6725 24.0138 29.4966C24.0119 29.3885 24.0413 29.2786 24.1047 29.1823C24.4221 28.7012 24.6784 28.156 24.8661 27.5651C24.9919 27.1603 25.0526 26.7567 25.0458 26.3633C25.0404 26.0585 25.2836 25.8054 25.5897 25.8001C25.8958 25.7947 26.1476 26.0392 26.1529 26.3453ZM23.2602 31.6297C23.1752 31.6898 23.0902 31.7486 23.0026 31.8049C22.7463 31.9722 22.4036 31.9 22.2363 31.6449C22.1774 31.5548 22.147 31.4537 22.1452 31.3508C22.142 31.1671 22.23 30.9858 22.3962 30.8786L22.6125 30.7302C22.8609 30.5513 23.2071 30.6078 23.3848 30.8562C23.5637 31.1058 23.5085 31.4507 23.2602 31.6297Z" fill="#F9FEFC"/>
<path d="M38.1613 24.6872C39.449 25.0074 40.3052 26.509 40.0664 28.0572C39.9447 28.8437 39.5681 29.5148 39.0049 29.9467C38.7632 30.1334 38.4146 30.0873 38.2292 29.8443C38.0439 29.6026 38.0886 29.2539 38.3316 29.0673C38.662 28.814 38.8956 28.3838 38.9716 27.8887C39.1215 26.9219 38.6289 25.9455 37.8948 25.7628L34.041 24.8086C33.7923 24.7465 33.6243 24.5253 33.62 24.2804C33.6192 24.2336 33.6249 24.1865 33.6371 24.1381C33.7114 23.8411 34.0105 23.6612 34.3075 23.7329L38.1613 24.6872ZM38.6904 11.8518C39.2683 12.2626 39.668 12.9214 39.8172 13.7032C40.1071 15.2356 39.3066 16.774 38.0309 17.1376L34.2127 18.2258C33.9184 18.3091 33.6131 18.1385 33.5285 17.8442C33.5146 17.7963 33.5073 17.7495 33.5065 17.7026C33.5022 17.4577 33.6624 17.2308 33.9088 17.1601L37.7269 16.0719C38.4556 15.865 38.9125 14.872 38.7289 13.9098C38.6356 13.4163 38.3872 12.9959 38.0482 12.7542C37.7988 12.5762 37.7407 12.2306 37.9187 11.9812C38.0955 11.7319 38.441 11.6737 38.6904 11.8518Z" fill="#232323"/>
<path d="M7.87209 16.9704C7.87209 16.9704 6.09034 20.2185 3.16883 21.2454C2.89689 21.3413 2.90333 21.7099 3.17845 21.7963C6.13399 22.7193 8.02804 25.9045 8.02804 25.9045L7.87209 16.9704Z" fill="#3A3A3A"/>
<path d="M15.8994 30.3601C21.839 30.2565 27.9109 21.0898 27.9109 21.0898C27.9109 21.0898 21.5228 12.1407 15.5832 12.2444C9.6436 12.348 6.31346 16.4635 6.40077 21.4653C6.48808 26.467 9.95981 30.4638 15.8994 30.3601Z" fill="#FFD731"/>
<path d="M16.8676 12.3688C16.3803 13.563 16.0111 14.8072 15.7468 16.0887C19.8901 16.0815 24.2397 20.4356 26.4611 23.0418C27.3794 21.9052 27.9124 21.0881 27.9124 21.0881C27.9124 21.0881 22.4097 13.3796 16.8676 12.3688ZM11.4886 16.9709C11.7362 15.4812 12.128 14.0411 12.6645 12.6767C8.56754 13.8427 6.33577 17.3605 6.40739 21.4635C6.41898 22.1278 6.49525 22.7649 6.62339 23.3881C7.1081 20.5522 8.78653 18.1776 11.4886 16.9709Z" fill="#D9B705"/>
<path d="M15.582 12.2511C14.5205 12.2696 13.5511 12.422 12.6579 12.6799C11.6177 15.3431 11.1012 18.2928 11.1551 21.3825C11.209 24.4721 11.8282 27.402 12.9607 30.0272C13.8624 30.2538 14.8365 30.3723 15.898 30.3538C16.3279 30.3463 16.7555 30.2854 17.1836 30.1828C15.9747 27.5055 15.328 24.494 15.2724 21.3106C15.2169 18.1272 15.7581 15.0949 16.8728 12.3771C16.4413 12.2895 16.0119 12.2436 15.582 12.2511Z" fill="#3A3A3A"/>
<path d="M15.5883 12.2489C15.2106 12.2555 14.8591 12.2747 14.5081 12.3199C14.183 12.3516 13.858 12.3964 13.5463 12.4539C13.2479 12.5243 12.9494 12.5947 12.6642 12.6778C12.1278 14.0422 11.736 15.4823 11.4884 16.972C12.6776 16.43 14.0793 16.1189 15.6554 16.0914L15.7466 16.0898C16.0109 14.8083 16.38 13.5641 16.8673 12.3699C16.658 12.3214 16.4492 12.299 16.2273 12.2768C16.0184 12.2544 15.8098 12.245 15.5883 12.2489Z" fill="#2D2D2D"/>
<path d="M24.4202 21.1504C24.349 17.0686 26.9522 13.7133 30.2347 13.656C33.5172 13.5987 36.236 16.8611 36.3072 20.9429C36.3785 25.0246 33.7752 28.3799 30.4927 28.4372C27.2102 28.4945 24.4915 25.2321 24.4202 21.1504Z" fill="#FFD731"/>
<path d="M30.2315 13.6598C26.9491 13.7171 24.3497 17.0719 24.4208 21.1489C24.4267 21.4875 24.4455 21.8129 24.4902 22.1379C25.4308 19.2941 27.6629 17.2877 30.294 17.2418C32.9382 17.1956 35.2392 19.1359 36.2787 21.9582C36.3121 21.6319 36.3189 21.28 36.313 20.9413C36.2419 16.8643 33.5139 13.6025 30.2315 13.6598Z" fill="#D9B705"/>
<path d="M17.4603 35.1355C16.5677 35.1315 15.8399 34.4146 15.8009 33.5228C15.5953 28.8332 16.9419 23.5758 21.3701 21.6027C23.4053 20.7111 25.346 21.2675 26.5971 22.6255C27.8481 23.9834 28.4122 26.1443 27.6905 28.4605C26.1121 33.4327 21.5909 35.152 17.4603 35.1355Z" fill="#DAF1F2"/>
<path d="M27.4331 13.7302C28.2353 16.0198 27.747 18.199 26.5441 19.5998C25.3411 21.0006 23.4198 21.6244 21.3559 20.8044C16.8616 18.9857 15.3323 13.7798 15.3742 9.08591C15.382 8.19326 16.0857 7.45133 16.9763 7.41624C21.1038 7.2556 25.6822 8.81608 27.4331 13.7302Z" fill="#DAF1F2"/>
<path d="M26.1529 26.3453C26.1619 26.8572 26.085 27.3784 25.9221 27.8985C25.7035 28.5877 25.4032 29.2261 25.0301 29.7929C24.8612 30.0473 24.5185 30.1184 24.2628 29.9496C24.1033 29.8456 24.0169 29.6725 24.0138 29.4966C24.0119 29.3885 24.0413 29.2786 24.1047 29.1823C24.4221 28.7012 24.6784 28.156 24.8661 27.5651C24.9919 27.1603 25.0526 26.7567 25.0458 26.3633C25.0404 26.0585 25.2836 25.8054 25.5897 25.8001C25.8958 25.7947 26.1476 26.0392 26.1529 26.3453ZM23.2602 31.6297C23.1752 31.6898 23.0902 31.7486 23.0026 31.8049C22.7463 31.9722 22.4036 31.9 22.2363 31.6449C22.1774 31.5548 22.147 31.4537 22.1452 31.3508C22.142 31.1671 22.23 30.9858 22.3962 30.8786L22.6125 30.7302C22.8609 30.5513 23.2071 30.6078 23.3848 30.8562C23.5637 31.1058 23.5085 31.4507 23.2602 31.6297Z" fill="#F9FEFC"/>
</svg>
