<svg width="82" height="119" viewBox="0 0 82 119" fill="none" xmlns="http://www.w3.org/2000/svg">
<path d="M73.71 98.3339C76.14 98.3339 78.03 99.0089 79.38 100.359C80.784 101.709 81.486 103.491 81.486 105.705V118.827H1.12057e-05V111.537C1.12057e-05 110.133 0.297011 108.621 0.891011 107.001C1.48501 105.327 2.48401 103.815 3.88801 102.465L38.718 67.5539C41.688 64.5839 44.307 61.7489 46.575 59.0489C48.843 56.2949 50.733 53.6219 52.245 51.0299C53.757 48.3839 54.891 45.7109 55.647 43.0109C56.403 40.3109 56.781 37.4759 56.781 34.5059C56.781 29.2679 55.431 25.2989 52.731 22.5989C50.031 19.8449 46.224 18.4679 41.31 18.4679C39.15 18.4679 37.152 18.7919 35.316 19.4399C33.534 20.0339 31.914 20.8709 30.456 21.9509C29.052 23.0309 27.837 24.2999 26.811 25.7579C25.785 27.2159 25.029 28.8089 24.543 30.5369C23.571 33.2369 22.248 35.0459 20.574 35.9639C18.954 36.8279 16.632 37.0169 13.608 36.5309L1.78201 34.4249C2.64601 28.7009 4.26601 23.6789 6.64201 19.3589C9.01801 15.0389 11.988 11.4479 15.552 8.5859C19.116 5.7239 23.193 3.5909 27.783 2.1869C32.373 0.728896 37.314 -0.000105977 42.606 -0.000105977C48.168 -0.000105977 53.217 0.836895 57.753 2.5109C62.343 4.1309 66.258 6.4259 69.498 9.3959C72.738 12.3119 75.249 15.8489 77.031 20.0069C78.813 24.1649 79.704 28.7549 79.704 33.7769C79.704 38.0969 79.083 42.0929 77.841 45.7649C76.599 49.4369 74.898 52.9469 72.738 56.2949C70.632 59.5889 68.175 62.8019 65.367 65.9339C62.559 69.0659 59.589 72.2249 56.457 75.4109L31.509 100.926C34.263 100.116 36.99 99.4949 39.69 99.0629C42.39 98.5769 44.928 98.3339 47.304 98.3339H73.71Z" fill="#002650" fill-opacity="0.3"/>
</svg>
