<svg width="82" height="119" viewBox="0 0 82 119" fill="none" xmlns="http://www.w3.org/2000/svg">
<path d="M73.7092 98.3339C76.1392 98.3339 78.0292 99.0089 79.3792 100.359C80.7832 101.709 81.4852 103.491 81.4852 105.705V118.827H-0.000843287V111.537C-0.000843287 110.133 0.296157 108.621 0.890157 107.001C1.48416 105.327 2.48316 103.815 3.88716 102.465L38.7172 67.5539C41.6872 64.5839 44.3062 61.7489 46.5742 59.0489C48.8422 56.2949 50.7322 53.6219 52.2442 51.0299C53.7562 48.3839 54.8902 45.7109 55.6462 43.0109C56.4022 40.3109 56.7802 37.4759 56.7802 34.5059C56.7802 29.2679 55.4302 25.2989 52.7302 22.5989C50.0302 19.8449 46.2232 18.4679 41.3092 18.4679C39.1492 18.4679 37.1512 18.7919 35.3152 19.4399C33.5332 20.0339 31.9132 20.8709 30.4552 21.9509C29.0512 23.0309 27.8362 24.2999 26.8102 25.7579C25.7842 27.2159 25.0282 28.8089 24.5422 30.5369C23.5702 33.2369 22.2472 35.0459 20.5732 35.9639C18.9532 36.8279 16.6312 37.0169 13.6072 36.5309L1.78116 34.4249C2.64516 28.7009 4.26516 23.6789 6.64116 19.3589C9.01716 15.0389 11.9872 11.4479 15.5512 8.5859C19.1152 5.7239 23.1922 3.5909 27.7822 2.1869C32.3722 0.728896 37.3132 -0.000105977 42.6052 -0.000105977C48.1672 -0.000105977 53.2162 0.836895 57.7522 2.5109C62.3422 4.1309 66.2572 6.4259 69.4972 9.3959C72.7372 12.3119 75.2482 15.8489 77.0302 20.0069C78.8122 24.1649 79.7032 28.7549 79.7032 33.7769C79.7032 38.0969 79.0822 42.0929 77.8402 45.7649C76.5982 49.4369 74.8972 52.9469 72.7372 56.2949C70.6312 59.5889 68.1742 62.8019 65.3662 65.9339C62.5582 69.0659 59.5882 72.2249 56.4562 75.4109L31.5082 100.926C34.2622 100.116 36.9892 99.4949 39.6892 99.0629C42.3892 98.5769 44.9272 98.3339 47.3032 98.3339H73.7092Z" fill="url(#paint0_linear_518_9682)"/>
<defs>
<linearGradient id="paint0_linear_518_9682" x1="41.4102" y1="2.8269" x2="41.4102" y2="118.827" gradientUnits="userSpaceOnUse">
<stop stop-color="#002650"/>
<stop offset="0.8" stop-color="white"/>
</linearGradient>
</defs>
</svg>
