<svg width="83" height="121" viewBox="0 0 83 121" fill="none" xmlns="http://www.w3.org/2000/svg">
<path d="M3.321 34.4249C4.185 28.7009 5.805 23.6789 8.181 19.3589C10.557 15.0389 13.527 11.4479 17.091 8.5859C20.655 5.7239 24.705 3.5909 29.241 2.1869C33.831 0.728896 38.772 -0.000105977 44.064 -0.000105977C49.68 -0.000105977 54.702 0.809896 59.13 2.4299C63.612 3.9959 67.392 6.1559 70.47 8.9099C73.548 11.6639 75.897 14.8769 77.517 18.5489C79.191 22.2209 80.028 26.1629 80.028 30.3749C80.028 34.1009 79.623 37.3949 78.813 40.2569C78.057 43.0649 76.896 45.5219 75.33 47.6279C73.818 49.7339 71.928 51.5159 69.66 52.9739C67.446 54.4319 64.881 55.6469 61.965 56.6189C75.465 61.0469 82.215 70.0379 82.215 83.5919C82.215 89.5859 81.108 94.8779 78.894 99.4679C76.68 104.004 73.71 107.811 69.984 110.889C66.258 113.967 61.911 116.289 56.943 117.855C52.029 119.367 46.872 120.123 41.472 120.123C35.748 120.123 30.699 119.475 26.325 118.179C21.951 116.883 18.09 114.939 14.742 112.347C11.448 109.755 8.613 106.515 6.237 102.627C3.861 98.6849 1.782 94.0949 2.11969e-06 88.8569L9.882 84.8069C12.474 83.7269 14.877 83.4299 17.091 83.9159C19.359 84.4019 20.979 85.5899 21.951 87.4799C23.031 89.5319 24.165 91.4219 25.353 93.1499C26.595 94.8779 27.972 96.3899 29.484 97.6859C30.996 98.9279 32.697 99.8999 34.587 100.602C36.531 101.304 38.745 101.655 41.229 101.655C44.361 101.655 47.088 101.142 49.41 100.116C51.732 99.0899 53.676 97.7669 55.242 96.1469C56.808 94.4729 57.969 92.6099 58.725 90.5579C59.535 88.4519 59.94 86.3729 59.94 84.3209C59.94 81.6209 59.697 79.1909 59.211 77.0309C58.725 74.8169 57.591 72.9539 55.809 71.4419C54.081 69.8759 51.489 68.6879 48.033 67.8779C44.631 67.0139 39.987 66.5819 34.101 66.5819V50.8679C39.015 50.8679 43.038 50.4629 46.17 49.6529C49.302 48.8429 51.759 47.7089 53.541 46.2509C55.323 44.7929 56.538 43.0379 57.186 40.9859C57.888 38.9339 58.239 36.6929 58.239 34.2629C58.239 29.1329 56.889 25.2179 54.189 22.5179C51.543 19.8179 47.763 18.4679 42.849 18.4679C40.689 18.4679 38.691 18.7919 36.855 19.4399C35.073 20.0339 33.453 20.8709 31.995 21.9509C30.591 23.0309 29.376 24.2999 28.35 25.7579C27.324 27.2159 26.568 28.8089 26.082 30.5369C25.056 33.2369 23.733 35.0459 22.113 35.9639C20.493 36.8279 18.144 37.0169 15.066 36.5309L3.321 34.4249Z" fill="#002650" fill-opacity="0.3"/>
</svg>
