<svg width="83" height="121" viewBox="0 0 83 121" fill="none" xmlns="http://www.w3.org/2000/svg">
<path d="M3.32076 34.4251C4.18476 28.7011 5.80476 23.6791 8.18076 19.3591C10.5568 15.0391 13.5268 11.4481 17.0908 8.58614C20.6548 5.72414 24.7048 3.59115 29.2408 2.18714C33.8308 0.72914 38.7718 0.000138164 44.0638 0.000138164C49.6798 0.000138164 54.7018 0.810141 59.1298 2.43015C63.6118 3.99614 67.3918 6.15614 70.4698 8.91014C73.5478 11.6641 75.8968 14.8771 77.5168 18.5491C79.1908 22.2211 80.0278 26.1631 80.0278 30.3751C80.0278 34.1011 79.6228 37.3951 78.8128 40.2571C78.0568 43.0651 76.8958 45.5221 75.3298 47.6281C73.8178 49.7341 71.9278 51.5161 69.6598 52.9741C67.4458 54.4321 64.8808 55.6471 61.9648 56.6191C75.4648 61.0471 82.2148 70.0381 82.2148 83.5921C82.2148 89.5861 81.1078 94.8781 78.8938 99.4681C76.6798 104.004 73.7098 107.811 69.9838 110.889C66.2578 113.967 61.9108 116.289 56.9428 117.855C52.0288 119.367 46.8718 120.123 41.4718 120.123C35.7478 120.123 30.6988 119.475 26.3248 118.179C21.9508 116.883 18.0898 114.939 14.7418 112.347C11.4478 109.755 8.61276 106.515 6.23676 102.627C3.86076 98.6851 1.78176 94.0951 -0.000242021 88.8571L9.88176 84.8071C12.4738 83.7271 14.8768 83.4301 17.0908 83.9161C19.3588 84.4021 20.9788 85.5901 21.9508 87.4801C23.0308 89.5321 24.1648 91.4221 25.3528 93.1501C26.5948 94.8781 27.9718 96.3901 29.4838 97.6861C30.9958 98.9281 32.6968 99.9001 34.5868 100.602C36.5308 101.304 38.7448 101.655 41.2288 101.655C44.3608 101.655 47.0878 101.142 49.4098 100.116C51.7318 99.0901 53.6758 97.7671 55.2418 96.1471C56.8078 94.4731 57.9688 92.6101 58.7248 90.5581C59.5348 88.4521 59.9398 86.3731 59.9398 84.3211C59.9398 81.6211 59.6968 79.1911 59.2108 77.0311C58.7248 74.8171 57.5908 72.9541 55.8088 71.4421C54.0808 69.8761 51.4888 68.6881 48.0328 67.8781C44.6308 67.0141 39.9868 66.5821 34.1008 66.5821V50.8681C39.0148 50.8681 43.0378 50.4631 46.1698 49.6531C49.3018 48.8431 51.7588 47.7091 53.5408 46.2511C55.3228 44.7931 56.5378 43.0381 57.1858 40.9861C57.8878 38.9341 58.2388 36.6931 58.2388 34.2631C58.2388 29.1331 56.8888 25.2181 54.1888 22.5181C51.5428 19.8181 47.7628 18.4681 42.8488 18.4681C40.6888 18.4681 38.6908 18.7921 36.8548 19.4401C35.0728 20.0341 33.4528 20.8711 31.9948 21.9511C30.5908 23.0311 29.3758 24.3001 28.3498 25.7581C27.3238 27.2161 26.5678 28.8091 26.0818 30.5371C25.0558 33.2371 23.7328 35.0461 22.1128 35.9641C20.4928 36.8281 18.1438 37.0171 15.0658 36.5311L3.32076 34.4251Z" fill="url(#paint0_linear_623_1051)"/>
<defs>
<linearGradient id="paint0_linear_623_1051" x1="42.3018" y1="2.82715" x2="42.3018" y2="118.827" gradientUnits="userSpaceOnUse">
<stop stop-color="#002650"/>
<stop offset="0.8" stop-color="white"/>
</linearGradient>
</defs>
</svg>
