<svg width="377" height="603" viewBox="0 0 377 603" fill="none" xmlns="http://www.w3.org/2000/svg">
<g clip-path="url(#clip0_901_961)">
<path d="M495.539 127.752C451.519 107.875 353.186 93.5178 312.014 195.099C260.55 322.076 225.307 327.087 190.692 336.946C156.077 346.804 57.5122 339.077 34.7643 421.39C16.566 487.24 76.1776 528.305 140.315 548.075" stroke="#F8B535" stroke-opacity="0.5" stroke-width="1.43116" stroke-linecap="round" stroke-dasharray="4.29 4.29"/>
<g clip-path="url(#clip1_901_961)">
<path d="M169.685 557.582C170.583 557.719 171.521 556.996 171.778 555.955C171.909 555.425 171.848 554.902 171.606 554.48C171.502 554.299 171.27 554.236 171.088 554.341C170.907 554.444 170.844 554.677 170.948 554.859C171.09 555.106 171.124 555.439 171.042 555.772C170.881 556.423 170.313 556.91 169.8 556.832L167.113 556.419C166.94 556.392 166.775 556.488 166.708 556.641C166.695 556.671 166.686 556.702 166.681 556.736C166.65 556.943 166.791 557.136 166.998 557.169L169.685 557.582ZM166.634 565.834C167.108 565.727 167.534 565.416 167.834 564.961C168.422 564.069 168.322 562.885 167.611 562.319L165.485 560.624C165.321 560.494 165.083 560.521 164.952 560.685C164.931 560.712 164.914 560.739 164.901 560.769C164.834 560.922 164.875 561.108 165.012 561.218L167.138 562.913C167.544 563.235 167.571 563.984 167.201 564.543C167.012 564.831 166.744 565.031 166.466 565.094C166.262 565.141 166.134 565.344 166.18 565.549C166.226 565.753 166.429 565.881 166.634 565.834Z" fill="#232323"/>
<path d="M148.507 554.469C148.507 554.469 148.237 551.946 146.662 550.526C146.515 550.394 146.617 550.163 146.813 550.181C148.925 550.377 150.962 548.863 150.962 548.863L148.507 554.469Z" fill="#3A3A3A"/>
<path d="M157.111 548.125C160.837 549.757 162.257 557.152 162.257 557.152C162.257 557.152 155.859 561.123 152.132 559.491C148.406 557.859 147.387 554.379 148.761 551.241C150.136 548.103 153.384 546.493 157.111 548.125Z" fill="#FFD731"/>
<path d="M152.978 559.75C152.985 558.867 153.08 557.983 153.251 557.103C155.867 558.201 159.765 556.596 161.856 555.535C162.137 556.495 162.258 557.152 162.258 557.152C162.258 557.152 156.747 560.573 152.978 559.75ZM150.792 555.422C150.556 556.429 150.424 557.443 150.403 558.447C148.121 556.629 147.638 553.817 148.766 551.243C148.948 550.826 149.165 550.443 149.41 550.083C148.968 552.004 149.403 553.947 150.792 555.422Z" fill="#D9B705"/>
<path d="M152.134 559.487C151.468 559.195 150.896 558.843 150.399 558.445C150.444 556.487 150.896 554.486 151.745 552.548C152.594 550.609 153.758 548.921 155.166 547.561C155.796 547.655 156.443 547.837 157.109 548.129C157.378 548.247 157.633 548.398 157.876 548.576C156.406 549.949 155.203 551.682 154.328 553.679C153.453 555.677 152.995 557.736 152.983 559.748C152.687 559.689 152.404 559.605 152.134 559.487Z" fill="#3A3A3A"/>
<path d="M152.138 559.489C151.901 559.385 151.684 559.281 151.474 559.159C151.277 559.054 151.083 558.94 150.902 558.821C150.731 558.698 150.561 558.575 150.403 558.447C150.424 557.443 150.556 556.429 150.793 555.423C151.401 556.079 152.205 556.645 153.194 557.078L153.251 557.103C153.08 557.983 152.985 558.867 152.978 559.75C152.833 559.725 152.695 559.684 152.549 559.64C152.411 559.599 152.277 559.55 152.138 559.489Z" fill="#2D2D2D"/>
<path d="M160.067 556.192C158.945 558.753 159.705 561.56 161.765 562.463C163.824 563.365 166.403 562.02 167.525 559.459C168.646 556.898 167.886 554.091 165.827 553.188C163.767 552.286 161.188 553.631 160.067 556.192Z" fill="#FFD731"/>
<path d="M161.764 562.459C159.705 561.557 158.947 558.751 160.067 556.193C160.16 555.981 160.258 555.78 160.372 555.586C160.216 557.632 161.098 559.489 162.748 560.212C164.407 560.938 166.374 560.319 167.775 558.809C167.71 559.024 167.621 559.249 167.528 559.461C166.408 562.019 163.824 563.361 161.764 562.459Z" fill="#D9B705"/>
<path d="M159.358 545.518C158.793 545.285 158.144 545.546 157.884 546.099C156.517 549.009 155.981 552.687 158.259 555.102C159.311 556.202 160.684 556.363 161.833 555.834C162.982 555.306 163.908 554.089 164.063 552.435C164.377 548.876 161.973 546.597 159.358 545.518Z" fill="#DAF1F2"/>
<path d="M160.014 561.678C161.125 560.442 161.391 558.936 161 557.733C160.61 556.531 159.56 555.63 158.039 555.604C154.719 555.568 152.379 558.454 151.168 561.432C150.937 561.998 151.186 562.653 151.74 562.91C154.306 564.1 157.611 564.322 160.014 561.678Z" fill="#DAF1F2"/>
<path d="M162.532 553.366C162.673 553.044 162.761 552.695 162.796 552.323C162.839 551.83 162.818 551.347 162.732 550.89C162.692 550.685 162.494 550.55 162.288 550.589C162.16 550.613 162.06 550.699 162.011 550.81C161.981 550.877 161.971 550.955 161.986 551.032C162.059 551.42 162.078 551.832 162.04 552.255C162.013 552.544 161.945 552.815 161.837 553.062C161.753 553.253 161.84 553.478 162.032 553.562C162.224 553.646 162.448 553.558 162.532 553.366ZM162.097 549.263C162.06 549.202 162.021 549.143 161.981 549.084C161.863 548.911 161.627 548.866 161.454 548.983C161.393 549.024 161.348 549.08 161.319 549.145C161.269 549.26 161.277 549.398 161.353 549.51L161.451 549.66C161.561 549.839 161.794 549.895 161.972 549.784C162.151 549.674 162.207 549.441 162.097 549.263Z" fill="#F9FEFC"/>
</g>
<path d="M495.539 127.752C451.519 107.875 353.186 93.5178 312.014 195.099C260.55 322.076 225.307 327.087 190.692 336.946C156.077 346.804 57.5122 339.077 34.7643 421.39C16.566 487.24 76.1776 528.305 140.315 548.075" stroke="#F8B535" stroke-opacity="0.5" stroke-width="1.43116" stroke-linecap="round" stroke-dasharray="4.29 4.29"/>
<g clip-path="url(#clip2_901_961)">
<path d="M169.685 557.582C170.583 557.719 171.521 556.996 171.778 555.955C171.909 555.425 171.848 554.902 171.606 554.48C171.502 554.299 171.27 554.236 171.088 554.341C170.907 554.444 170.844 554.677 170.948 554.859C171.09 555.106 171.124 555.439 171.042 555.772C170.881 556.423 170.313 556.91 169.8 556.832L167.113 556.419C166.94 556.392 166.775 556.488 166.708 556.641C166.695 556.671 166.686 556.702 166.681 556.736C166.65 556.943 166.791 557.136 166.998 557.169L169.685 557.582ZM166.634 565.834C167.108 565.727 167.534 565.416 167.834 564.961C168.422 564.069 168.322 562.885 167.611 562.319L165.485 560.624C165.321 560.494 165.083 560.521 164.952 560.685C164.931 560.712 164.914 560.739 164.901 560.769C164.834 560.922 164.875 561.108 165.012 561.218L167.138 562.913C167.544 563.235 167.571 563.984 167.201 564.543C167.012 564.831 166.744 565.031 166.466 565.094C166.262 565.141 166.134 565.344 166.18 565.549C166.226 565.753 166.429 565.881 166.634 565.834Z" fill="#232323"/>
<path d="M148.507 554.469C148.507 554.469 148.237 551.946 146.662 550.526C146.515 550.394 146.617 550.163 146.813 550.181C148.925 550.377 150.962 548.863 150.962 548.863L148.507 554.469Z" fill="#3A3A3A"/>
<path d="M157.111 548.125C160.837 549.757 162.257 557.152 162.257 557.152C162.257 557.152 155.859 561.123 152.132 559.491C148.406 557.859 147.387 554.379 148.761 551.241C150.136 548.103 153.384 546.493 157.111 548.125Z" fill="#FFD731"/>
<path d="M152.978 559.75C152.985 558.867 153.08 557.983 153.251 557.103C155.867 558.201 159.765 556.596 161.856 555.535C162.137 556.495 162.258 557.152 162.258 557.152C162.258 557.152 156.747 560.573 152.978 559.75ZM150.792 555.422C150.556 556.429 150.424 557.443 150.403 558.447C148.121 556.629 147.638 553.817 148.766 551.243C148.948 550.826 149.165 550.443 149.41 550.083C148.968 552.004 149.403 553.947 150.792 555.422Z" fill="#D9B705"/>
<path d="M152.134 559.487C151.468 559.195 150.896 558.843 150.399 558.445C150.444 556.487 150.896 554.486 151.745 552.548C152.594 550.609 153.758 548.921 155.166 547.561C155.796 547.655 156.443 547.837 157.109 548.129C157.378 548.247 157.633 548.398 157.876 548.576C156.406 549.949 155.203 551.682 154.328 553.679C153.453 555.677 152.995 557.736 152.983 559.748C152.687 559.689 152.404 559.605 152.134 559.487Z" fill="#3A3A3A"/>
<path d="M152.138 559.489C151.901 559.385 151.684 559.281 151.474 559.159C151.277 559.054 151.083 558.94 150.902 558.821C150.731 558.698 150.561 558.575 150.403 558.447C150.424 557.443 150.556 556.429 150.793 555.423C151.401 556.079 152.205 556.645 153.194 557.078L153.251 557.103C153.08 557.983 152.985 558.867 152.978 559.75C152.833 559.725 152.695 559.684 152.549 559.64C152.411 559.599 152.277 559.55 152.138 559.489Z" fill="#2D2D2D"/>
<path d="M160.067 556.192C158.945 558.753 159.705 561.56 161.765 562.463C163.824 563.365 166.403 562.02 167.525 559.459C168.646 556.898 167.886 554.091 165.827 553.188C163.767 552.286 161.188 553.631 160.067 556.192Z" fill="#FFD731"/>
<path d="M161.764 562.459C159.705 561.557 158.947 558.751 160.067 556.193C160.16 555.981 160.258 555.78 160.372 555.586C160.216 557.632 161.098 559.489 162.748 560.212C164.407 560.938 166.374 560.319 167.775 558.809C167.71 559.024 167.621 559.249 167.528 559.461C166.408 562.019 163.824 563.361 161.764 562.459Z" fill="#D9B705"/>
<path d="M159.358 545.518C158.793 545.285 158.144 545.546 157.884 546.099C156.517 549.009 155.981 552.687 158.259 555.102C159.311 556.202 160.684 556.363 161.833 555.834C162.982 555.306 163.908 554.089 164.063 552.435C164.377 548.876 161.973 546.597 159.358 545.518Z" fill="#DAF1F2"/>
<path d="M160.014 561.678C161.125 560.442 161.391 558.936 161 557.733C160.61 556.531 159.56 555.63 158.039 555.604C154.719 555.568 152.379 558.454 151.168 561.432C150.937 561.998 151.186 562.653 151.74 562.91C154.306 564.1 157.611 564.322 160.014 561.678Z" fill="#DAF1F2"/>
<path d="M162.532 553.366C162.673 553.044 162.761 552.695 162.796 552.323C162.839 551.83 162.818 551.347 162.732 550.89C162.692 550.685 162.494 550.55 162.288 550.589C162.16 550.613 162.06 550.699 162.011 550.81C161.981 550.877 161.971 550.955 161.986 551.032C162.059 551.42 162.078 551.832 162.04 552.255C162.013 552.544 161.945 552.815 161.837 553.062C161.753 553.253 161.84 553.478 162.032 553.562C162.224 553.646 162.448 553.558 162.532 553.366ZM162.097 549.263C162.06 549.202 162.021 549.143 161.981 549.084C161.863 548.911 161.627 548.866 161.454 548.983C161.393 549.024 161.348 549.08 161.319 549.145C161.269 549.26 161.277 549.398 161.353 549.51L161.451 549.66C161.561 549.839 161.794 549.895 161.972 549.784C162.151 549.674 162.207 549.441 162.097 549.263Z" fill="#F9FEFC"/>
</g>
</g>
<defs>
<clipPath id="clip0_901_961">
<rect width="377" height="603" fill="white"/>
</clipPath>
<clipPath id="clip1_901_961">
<rect width="22.8424" height="29.443" fill="white" transform="translate(177.698 551.425) rotate(113.653)"/>
</clipPath>
<clipPath id="clip2_901_961">
<rect width="22.8424" height="29.443" fill="white" transform="translate(177.698 551.425) rotate(113.653)"/>
</clipPath>
</defs>
</svg>
